<svg xmlns="http://www.w3.org/2000/svg" width="24" height="24" fill="none" viewBox="0 0 24 24"><path fill="#fff" d="m13.125 15.989-.056.005a.776.776 0 0 0-.45.21l-3.029 3.03a3.39 3.39 0 0 1-2.414.994 3.388 3.388 0 0 1-2.414-.994 3.389 3.389 0 0 1-.994-2.414c0-.914.351-1.772.994-2.414l3.215-3.216a3.394 3.394 0 0 1 2.41-.994c.065 0 .13.005.215.01a3.373 3.373 0 0 1 2.995 2.264.738.738 0 0 0 .905.473c.005 0 .01-.005.014-.005.005 0 .01 0 .01-.004.38-.117.6-.516.492-.896-.207-.73-.572-1.345-1.153-1.921a4.934 4.934 0 0 0-2.968-1.411 4.836 4.836 0 0 0-1.64.103c-.052.01-.099.023-.15.037a4.877 4.877 0 0 0-2.213 1.275L3.68 13.336a4.945 4.945 0 0 0-1.43 3.492 4.908 4.908 0 0 0 4.922 4.922 4.89 4.89 0 0 0 3.487-1.44l3.061-3.06c.488-.492.094-1.327-.595-1.261Z"/><path fill="#fff" d="M20.31 3.69a4.892 4.892 0 0 0-3.482-1.44c-1.317 0-2.56.51-3.487 1.44l-2.986 2.985a.754.754 0 0 0 .473 1.284c.22.02.436-.06.595-.215l2.991-2.981a3.388 3.388 0 0 1 2.414-.994c.914 0 1.772.351 2.414.994.642.642.994 1.5.994 2.414a3.39 3.39 0 0 1-.994 2.414l-3.215 3.215a3.4 3.4 0 0 1-1.229.788c-.225.084-.464.14-.703.173-.16.024-.323.033-.478.033-.065 0-.136-.005-.215-.01a3.404 3.404 0 0 1-2.194-.984c-.342-.342-.6-.75-.769-1.195a.749.749 0 0 0-.895-.46.757.757 0 0 0-.53.962c.211.656.567 1.214 1.111 1.757l.01.01a4.935 4.935 0 0 0 3.853 1.425 4.879 4.879 0 0 0 3.117-1.425l3.215-3.216a4.895 4.895 0 0 0 1.44-3.487c0-1.322-.52-2.56-1.45-3.488Z"/></svg>