<svg width="718" height="281" viewBox="0 0 718 281" fill="none" xmlns="http://www.w3.org/2000/svg">
<path d="M43.6857 94.995H56.5189C54.2521 97.4813 51.6927 100.238 48.8409 103.265C45.9891 106.307 43.0129 109.415 39.9125 112.589C36.7974 115.777 33.7042 118.907 30.633 121.978C27.5618 125.049 24.6734 127.901 21.9678 130.533C25.1122 132.727 28.4393 135.433 31.9493 138.65C35.4592 141.868 38.896 145.304 42.2597 148.961C45.6234 152.617 48.7897 156.346 51.7585 160.149C54.7128 163.951 57.177 167.571 59.1514 171.007H46.6472C44.4535 167.571 41.9307 164.112 39.0788 160.631C36.227 157.165 33.2143 153.838 30.0407 150.65C26.8525 147.476 23.6351 144.537 20.3883 141.831C17.127 139.125 13.9607 136.822 10.8895 134.921V171.007H0.25V94.995H10.8895V128.559C13.4489 126.146 16.2642 123.418 19.3354 120.376C22.4066 117.349 25.4412 114.3 28.4393 111.229C31.4374 108.157 34.2746 105.21 36.9509 102.388C39.6127 99.5799 41.8576 97.1156 43.6857 94.995ZM87.8891 163.659C90.3022 163.659 92.4374 163.6 94.2948 163.483C96.1668 163.381 97.7243 163.183 98.9674 162.891V145.889C98.2362 145.524 97.0442 145.209 95.3916 144.946C93.7537 144.697 91.7647 144.573 89.4247 144.573C87.8891 144.573 86.2585 144.683 84.5327 144.902C82.8216 145.122 81.2495 145.575 79.8162 146.262C78.3976 146.964 77.213 147.915 76.2624 149.114C75.3118 150.328 74.8365 151.922 74.8365 153.896C74.8365 157.553 76.0065 160.09 78.3464 161.509C80.6864 162.942 83.8673 163.659 87.8891 163.659ZM87.0116 112.545C91.1066 112.545 94.558 113.071 97.366 114.124C100.189 115.192 102.455 116.691 104.167 118.621C105.892 120.567 107.121 122.87 107.852 125.532C108.583 128.208 108.949 131.155 108.949 134.372V170.02C108.071 170.167 106.843 170.364 105.263 170.613C103.699 170.876 101.929 171.117 99.9546 171.337C97.9802 171.556 95.8377 171.761 93.527 171.951C91.2309 172.126 88.9494 172.214 86.6826 172.214C83.4651 172.214 80.5036 171.885 77.798 171.227C75.0924 170.569 72.7525 169.523 70.7781 168.09C68.8038 166.671 67.2681 164.792 66.1713 162.452C65.0744 160.112 64.526 157.297 64.526 154.006C64.526 150.862 65.1622 148.156 66.4345 145.889C67.7215 143.623 69.4619 141.794 71.6556 140.405C73.8493 139.016 76.4086 137.992 79.3336 137.334C82.2586 136.676 85.3298 136.347 88.5472 136.347C89.571 136.347 90.6313 136.398 91.7281 136.5C92.825 136.617 93.8633 136.763 94.8432 136.939C95.8377 137.129 96.7006 137.297 97.4318 137.444C98.163 137.59 98.6749 137.699 98.9674 137.773V134.921C98.9674 133.239 98.7846 131.572 98.419 129.919C98.0534 128.281 97.3952 126.819 96.4446 125.532C95.494 124.259 94.1924 123.236 92.5398 122.46C90.9018 121.7 88.7666 121.32 86.1341 121.32C82.7704 121.32 79.8235 121.554 77.2934 122.022C74.778 122.504 72.8987 123.002 71.6556 123.513L70.449 115.068C71.7653 114.483 73.959 113.912 77.0302 113.356C80.1014 112.815 83.4286 112.545 87.0116 112.545ZM125.84 171.007V115.616C128.18 115.031 131.266 114.409 135.098 113.751C138.944 113.093 143.383 112.764 148.414 112.764C152.07 112.764 155.149 113.254 157.649 114.234C160.136 115.228 162.22 116.676 163.902 118.578C164.413 118.212 165.218 117.7 166.315 117.042C167.411 116.384 168.757 115.74 170.351 115.111C171.974 114.497 173.773 113.949 175.748 113.466C177.722 112.998 179.843 112.764 182.109 112.764C186.482 112.764 190.058 113.4 192.837 114.673C195.63 115.96 197.809 117.773 199.374 120.113C200.953 122.453 202.014 125.232 202.555 128.449C203.111 131.667 203.388 135.177 203.388 138.979V171.007H193.188V141.173C193.188 137.809 193.019 134.921 192.683 132.508C192.361 130.095 191.74 128.084 190.818 126.475C189.912 124.866 188.669 123.674 187.089 122.899C185.524 122.139 183.499 121.758 181.013 121.758C177.561 121.758 174.724 122.212 172.501 123.119C170.278 124.04 168.764 124.866 167.96 125.597C168.545 127.499 168.976 129.583 169.254 131.85C169.561 134.116 169.715 136.493 169.715 138.979V171.007H159.514V141.173C159.514 137.809 159.331 134.921 158.966 132.508C158.6 130.095 157.957 128.084 157.035 126.475C156.128 124.866 154.885 123.674 153.306 122.899C151.741 122.139 149.745 121.758 147.317 121.758C146.308 121.758 145.211 121.795 144.026 121.868C142.871 121.941 141.76 122.029 140.692 122.131C139.624 122.248 138.659 122.38 137.796 122.526C136.904 122.672 136.319 122.782 136.041 122.855V171.007H125.84ZM230.459 85.8911V116.494C231.702 115.689 233.589 114.848 236.119 113.971C238.634 113.093 241.537 112.654 244.828 112.654C248.923 112.654 252.564 113.386 255.753 114.848C258.926 116.311 261.61 118.358 263.804 120.991C265.997 123.623 267.664 126.767 268.805 130.424C269.931 134.08 270.494 138.102 270.494 142.489C270.494 147.096 269.822 151.242 268.476 154.927C267.116 158.628 265.193 161.757 262.707 164.317C260.22 166.876 257.222 168.85 253.712 170.24C250.202 171.629 246.254 172.324 241.866 172.324C237.113 172.324 232.909 171.995 229.252 171.337C225.596 170.678 222.598 170.02 220.258 169.362V87.6461L230.459 85.8911ZM230.459 126.036V162.123C231.483 162.415 232.931 162.686 234.803 162.935C236.66 163.198 238.978 163.329 241.757 163.329C247.241 163.329 251.628 161.516 254.919 157.889C258.21 154.277 259.855 149.143 259.855 142.489C259.855 139.564 259.562 136.822 258.977 134.263C258.392 131.703 257.442 129.488 256.126 127.616C254.809 125.758 253.113 124.296 251.036 123.228C248.945 122.175 246.437 121.649 243.512 121.649C240.733 121.649 238.174 122.124 235.834 123.075C233.494 124.025 231.702 125.012 230.459 126.036ZM295.064 113.971V171.007H284.863V113.971H295.064ZM289.909 103.66C288.081 103.66 286.53 103.053 285.258 101.839C283.971 100.64 283.328 99.0169 283.328 96.9694C283.328 94.9219 283.971 93.2913 285.258 92.0774C286.53 90.8782 288.081 90.2786 289.909 90.2786C291.737 90.2786 293.294 90.8782 294.581 92.0774C295.854 93.2913 296.49 94.9219 296.49 96.9694C296.49 99.0169 295.854 100.64 294.581 101.839C293.294 103.053 291.737 103.66 289.909 103.66ZM350.455 113.971V121.649C348.92 123.331 346.887 125.707 344.357 128.778C341.841 131.85 339.136 135.25 336.24 138.979C333.359 142.708 330.471 146.621 327.575 150.716C324.694 154.81 322.156 158.723 319.963 162.452H351.333V171.007H307.788V164.207C309.543 160.989 311.7 157.443 314.259 153.567C316.818 149.692 319.502 145.831 322.31 141.985C325.133 138.153 327.875 134.533 330.536 131.126C333.213 127.733 335.538 124.866 337.513 122.526H309.323V113.971H350.455ZM410.761 171.666C409.225 171.666 407.565 171.629 405.781 171.556C403.982 171.483 402.191 171.373 400.406 171.227C398.608 171.081 396.831 170.898 395.076 170.678C393.321 170.459 391.712 170.167 390.25 169.801V96.0919C391.712 95.7263 393.321 95.4338 395.076 95.2144C396.831 94.9951 398.608 94.8122 400.406 94.666C402.191 94.5197 403.96 94.4101 405.715 94.3369C407.47 94.2638 409.116 94.2272 410.651 94.2272C415.039 94.2272 419.155 94.5563 423.002 95.2144C426.833 95.8725 430.161 96.9913 432.983 98.5708C435.791 100.136 438 102.198 439.608 104.757C441.217 107.316 442.021 110.461 442.021 114.19C442.021 118.358 441.034 121.773 439.06 124.435C437.085 127.111 434.453 129.107 431.162 130.424C435.623 131.74 439.17 133.824 441.802 136.676C444.434 139.528 445.751 143.549 445.751 148.741C445.751 156.346 442.957 162.064 437.371 165.896C431.769 169.742 422.899 171.666 410.761 171.666ZM414.49 135.579H400.779V162.342C401.584 162.415 402.534 162.489 403.631 162.562C404.582 162.635 405.701 162.686 406.988 162.715C408.26 162.759 409.737 162.781 411.419 162.781C414.563 162.781 417.547 162.576 420.369 162.167C423.177 161.772 425.642 161.063 427.762 160.039C429.883 159.015 431.587 157.589 432.874 155.761C434.146 153.933 434.782 151.63 434.782 148.851C434.782 146.365 434.307 144.259 433.356 142.533C432.406 140.822 431.038 139.454 429.254 138.431C427.455 137.407 425.312 136.676 422.826 136.237C420.34 135.798 417.561 135.579 414.49 135.579ZM400.779 103.551V127.023H411.967C414.6 127.023 417.086 126.841 419.426 126.475C421.766 126.109 423.799 125.451 425.525 124.501C427.236 123.55 428.588 122.307 429.583 120.771C430.563 119.236 431.053 117.298 431.053 114.958C431.053 112.764 430.541 110.914 429.517 109.408C428.493 107.916 427.089 106.71 425.305 105.788C423.506 104.881 421.4 104.209 418.987 103.77C416.574 103.331 414.015 103.112 411.309 103.112C408.604 103.112 406.483 103.148 404.947 103.222C403.412 103.295 402.023 103.404 400.779 103.551ZM479.424 163.659C481.837 163.659 483.98 163.6 485.852 163.483C487.709 163.381 489.259 163.183 490.503 162.891V145.889C489.771 145.524 488.587 145.209 486.949 144.946C485.296 144.697 483.3 144.573 480.96 144.573C479.424 144.573 477.801 144.683 476.09 144.902C474.364 145.122 472.792 145.575 471.373 146.262C469.94 146.964 468.748 147.915 467.798 149.114C466.847 150.328 466.372 151.922 466.372 153.896C466.372 157.553 467.542 160.09 469.882 161.509C472.222 162.942 475.402 163.659 479.424 163.659ZM478.547 112.545C482.642 112.545 486.1 113.071 488.923 114.124C491.731 115.192 493.998 116.691 495.724 118.621C497.435 120.567 498.656 122.87 499.387 125.532C500.118 128.208 500.484 131.155 500.484 134.372V170.02C499.607 170.167 498.385 170.364 496.82 170.613C495.241 170.876 493.464 171.117 491.49 171.337C489.515 171.556 487.38 171.761 485.084 171.951C482.773 172.126 480.485 172.214 478.218 172.214C475 172.214 472.039 171.885 469.333 171.227C466.628 170.569 464.288 169.523 462.313 168.09C460.339 166.671 458.803 164.792 457.706 162.452C456.61 160.112 456.061 157.297 456.061 154.006C456.061 150.862 456.705 148.156 457.992 145.889C459.264 143.623 460.997 141.794 463.191 140.405C465.384 139.016 467.944 137.992 470.869 137.334C473.794 136.676 476.865 136.347 480.082 136.347C481.106 136.347 482.166 136.398 483.263 136.5C484.36 136.617 485.406 136.763 486.4 136.939C487.38 137.129 488.236 137.297 488.967 137.444C489.698 137.59 490.21 137.699 490.503 137.773V134.921C490.503 133.239 490.32 131.572 489.954 129.919C489.589 128.281 488.93 126.819 487.98 125.532C487.029 124.259 485.735 123.236 484.097 122.46C482.444 121.7 480.302 121.32 477.669 121.32C474.306 121.32 471.366 121.554 468.851 122.022C466.32 122.504 464.434 123.002 463.191 123.513L461.984 115.068C463.3 114.483 465.494 113.912 468.565 113.356C471.637 112.815 474.964 112.545 478.547 112.545ZM553.133 167.717V165.304C552.256 165.889 550.552 166.635 548.022 167.541C545.506 168.463 542.567 168.923 539.203 168.923C535.766 168.923 532.527 168.375 529.485 167.278C526.458 166.181 523.811 164.477 521.544 162.167C519.277 159.871 517.485 157.004 516.169 153.567C514.853 150.131 514.195 146.036 514.195 141.283C514.195 137.114 514.816 133.29 516.059 129.809C517.302 126.343 519.109 123.345 521.478 120.815C523.862 118.3 526.772 116.325 530.209 114.892C533.646 113.473 537.521 112.764 541.836 112.764C546.589 112.764 550.735 113.108 554.274 113.795C557.828 114.497 560.811 115.141 563.224 115.726V166.62C563.224 175.395 560.958 181.757 556.424 185.705C551.89 189.654 545.016 191.628 535.803 191.628C532.22 191.628 528.834 191.336 525.646 190.751C522.472 190.166 519.716 189.471 517.376 188.667L519.24 179.782C521.288 180.587 523.789 181.303 526.743 181.932C529.712 182.546 532.805 182.854 536.022 182.854C542.092 182.854 546.457 181.647 549.119 179.234C551.795 176.821 553.133 172.982 553.133 167.717ZM553.024 156.31V122.965C552 122.672 550.625 122.395 548.899 122.131C547.188 121.883 544.87 121.758 541.945 121.758C536.461 121.758 532.234 123.55 529.266 127.133C526.311 130.716 524.834 135.469 524.834 141.392C524.834 144.683 525.251 147.498 526.085 149.838C526.933 152.178 528.066 154.116 529.485 155.651C530.918 157.187 532.563 158.32 534.421 159.052C536.293 159.783 538.216 160.149 540.19 160.149C542.896 160.149 545.382 159.761 547.649 158.986C549.916 158.225 551.707 157.333 553.024 156.31ZM590.975 171.007H580.774V87.6461L590.975 85.8911V115.068C592.876 114.336 594.902 113.766 597.052 113.356C599.216 112.962 601.359 112.764 603.479 112.764C608.013 112.764 611.779 113.4 614.777 114.673C617.775 115.96 620.166 117.751 621.95 120.047C623.749 122.358 625.014 125.122 625.745 128.34C626.477 131.557 626.842 135.104 626.842 138.979V171.007H616.641V141.173C616.641 137.663 616.4 134.665 615.918 132.179C615.45 129.692 614.667 127.681 613.57 126.146C612.473 124.61 611.011 123.491 609.183 122.789C607.355 122.102 605.088 121.758 602.382 121.758C601.285 121.758 600.152 121.832 598.982 121.978C597.812 122.124 596.693 122.285 595.626 122.46C594.573 122.651 593.622 122.855 592.774 123.075C591.94 123.294 591.341 123.477 590.975 123.623V171.007ZM653.584 113.971V171.007H643.383V113.971H653.584ZM648.428 103.66C646.6 103.66 645.05 103.053 643.778 101.839C642.491 100.64 641.847 99.0169 641.847 96.9694C641.847 94.9219 642.491 93.2913 643.778 92.0774C645.05 90.8782 646.6 90.2786 648.428 90.2786C650.257 90.2786 651.814 90.8782 653.101 92.0774C654.373 93.2913 655.01 94.9219 655.01 96.9694C655.01 99.0169 654.373 100.64 653.101 101.839C651.814 103.053 650.257 103.66 648.428 103.66ZM667.953 142.599C667.953 137.553 668.684 133.144 670.146 129.371C671.609 125.612 673.547 122.49 675.96 120.003C678.373 117.517 681.151 115.653 684.296 114.409C687.44 113.166 690.658 112.545 693.948 112.545C701.626 112.545 707.513 114.936 711.608 119.718C715.703 124.515 717.75 131.813 717.75 141.612C717.75 142.05 717.75 142.613 717.75 143.301C717.75 144.003 717.714 144.646 717.64 145.231H678.592C679.031 151.154 680.749 155.651 683.747 158.723C686.745 161.794 691.425 163.329 697.787 163.329C701.37 163.329 704.39 163.015 706.847 162.386C709.29 161.772 711.132 161.172 712.375 160.587L713.801 169.143C712.558 169.801 710.386 170.496 707.286 171.227C704.171 171.958 700.639 172.324 696.69 172.324C691.718 172.324 687.426 171.571 683.813 170.064C680.186 168.572 677.203 166.51 674.863 163.878C672.523 161.245 670.79 158.116 669.664 154.489C668.523 150.876 667.953 146.913 667.953 142.599ZM678.812 137.005H707.11C707.184 132.398 706.036 128.61 703.666 125.641C701.283 122.687 698.007 121.21 693.839 121.21C691.499 121.21 689.436 121.663 687.652 122.57C685.853 123.491 684.332 124.683 683.089 126.146C681.846 127.608 680.881 129.29 680.194 131.191C679.492 133.093 679.031 135.03 678.812 137.005Z" fill="white"/>
<path d="M78.46 268.269H72.0002V222.118H99.8371V227.645H78.46V241.564H97.4397V247.025H78.46V268.269ZM118.284 232.906C118.817 232.906 119.425 232.938 120.109 233C120.801 233.071 121.481 233.16 122.147 233.266C122.813 233.382 123.421 233.493 123.971 233.599C124.531 233.714 124.944 233.817 125.21 233.905L124.144 239.3C123.656 239.122 122.844 238.909 121.707 238.66C120.579 238.421 119.128 238.301 117.352 238.301C116.197 238.301 115.052 238.421 113.915 238.66C112.788 238.909 112.046 239.078 111.691 239.166V268.269H105.498V235.104C106.963 234.571 108.783 234.07 110.959 233.599C113.134 233.137 115.576 232.906 118.284 232.906ZM161.771 250.954C161.771 253.706 161.371 256.193 160.572 258.413C159.773 260.632 158.65 262.541 157.202 264.14C155.764 265.738 154.046 266.968 152.048 267.829C150.05 268.699 147.875 269.134 145.522 269.134C143.169 269.134 140.993 268.699 138.995 267.829C136.997 266.968 135.275 265.738 133.827 264.14C132.389 262.541 131.27 260.632 130.471 258.413C129.672 256.193 129.272 253.706 129.272 250.954C129.272 248.246 129.672 245.773 130.471 243.535C131.27 241.289 132.389 239.366 133.827 237.768C135.275 236.17 136.997 234.935 138.995 234.065C140.993 233.204 143.169 232.773 145.522 232.773C147.875 232.773 150.05 233.204 152.048 234.065C154.046 234.935 155.764 236.17 157.202 237.768C158.65 239.366 159.773 241.289 160.572 243.535C161.371 245.773 161.771 248.246 161.771 250.954ZM155.298 250.954C155.298 247.047 154.423 243.948 152.674 241.657C150.925 239.375 148.541 238.234 145.522 238.234C142.503 238.234 140.114 239.375 138.356 241.657C136.607 243.948 135.732 247.047 135.732 250.954C135.732 254.861 136.607 257.955 138.356 260.237C140.114 262.528 142.503 263.674 145.522 263.674C148.541 263.674 150.925 262.528 152.674 260.237C154.423 257.955 155.298 254.861 155.298 250.954ZM170.482 268.269V234.638C171.902 234.283 173.789 233.905 176.142 233.506C178.495 233.106 181.203 232.906 184.267 232.906C187.019 232.906 189.306 233.293 191.126 234.065C192.946 234.847 194.403 235.934 195.495 237.328C196.578 238.731 197.342 240.41 197.786 242.363C198.23 244.316 198.452 246.47 198.452 248.823V268.269H192.258V250.155C192.258 248.024 192.116 246.203 191.832 244.694C191.539 243.184 191.06 241.963 190.394 241.031C189.728 240.099 188.84 239.419 187.73 238.993C186.62 238.576 185.244 238.367 183.601 238.367C182.935 238.367 182.247 238.389 181.536 238.434C180.826 238.478 180.151 238.532 179.512 238.594C178.864 238.665 178.287 238.745 177.78 238.833C177.265 238.922 176.897 238.989 176.675 239.033V268.269H170.482ZM214.501 222.917V233.639H227.62V238.833H214.501V254.816C214.501 256.548 214.634 257.977 214.901 259.105C215.167 260.242 215.567 261.13 216.099 261.769C216.632 262.417 217.298 262.874 218.097 263.141C218.896 263.407 219.829 263.54 220.894 263.54C222.759 263.54 224.26 263.327 225.396 262.901C226.524 262.484 227.31 262.186 227.754 262.009L228.952 267.137C228.331 267.447 227.243 267.838 225.689 268.309C224.135 268.77 222.359 269.001 220.362 269.001C218.009 269.001 216.068 268.699 214.541 268.095C213.005 267.501 211.771 266.604 210.838 265.405C209.906 264.206 209.253 262.728 208.881 260.97C208.499 259.221 208.308 257.192 208.308 254.883V223.983L214.501 222.917ZM229.285 251.22V245.426H245.734V251.22H229.285ZM250.862 251.02C250.862 247.957 251.306 245.28 252.194 242.989C253.082 240.707 254.259 238.811 255.724 237.302C257.189 235.792 258.876 234.66 260.785 233.905C262.694 233.151 264.648 232.773 266.645 232.773C271.307 232.773 274.881 234.225 277.367 237.129C279.854 240.041 281.097 244.472 281.097 250.421C281.097 250.687 281.097 251.029 281.097 251.447C281.097 251.873 281.074 252.264 281.03 252.619H257.322C257.588 256.215 258.632 258.945 260.452 260.81C262.272 262.675 265.114 263.607 268.976 263.607C271.152 263.607 272.981 263.416 274.464 263.034C275.955 262.661 277.079 262.297 277.833 261.942L278.699 267.137C277.944 267.536 276.621 267.958 274.73 268.402C272.848 268.846 270.708 269.068 268.31 269.068C265.291 269.068 262.681 268.611 260.479 267.696C258.285 266.79 256.479 265.538 255.058 263.94C253.637 262.342 252.58 260.441 251.888 258.239C251.204 256.046 250.862 253.64 250.862 251.02ZM257.455 247.624H274.637C274.681 244.827 273.98 242.527 272.532 240.725C271.094 238.931 269.109 238.034 266.579 238.034C265.158 238.034 263.902 238.31 262.81 238.86C261.726 239.419 260.807 240.143 260.052 241.031C259.298 241.919 258.707 242.94 258.281 244.094C257.864 245.249 257.588 246.425 257.455 247.624ZM290.007 268.269V234.638C291.428 234.283 293.315 233.905 295.668 233.506C298.021 233.106 300.729 232.906 303.792 232.906C306.545 232.906 308.831 233.293 310.652 234.065C312.472 234.847 313.928 235.934 315.02 237.328C316.104 238.731 316.867 240.41 317.311 242.363C317.755 244.316 317.977 246.47 317.977 248.823V268.269H311.784V250.155C311.784 248.024 311.642 246.203 311.358 244.694C311.065 243.184 310.585 241.963 309.919 241.031C309.253 240.099 308.365 239.419 307.255 238.993C306.145 238.576 304.769 238.367 303.126 238.367C302.46 238.367 301.772 238.389 301.062 238.434C300.352 238.478 299.677 238.532 299.037 238.594C298.389 238.665 297.812 238.745 297.306 238.833C296.791 238.922 296.422 238.989 296.2 239.033V268.269H290.007ZM350.609 262.874V240.965C349.854 240.343 348.766 239.744 347.346 239.166C345.925 238.589 344.371 238.301 342.684 238.301C340.908 238.301 339.39 238.62 338.129 239.26C336.859 239.908 335.825 240.796 335.026 241.923C334.226 243.06 333.649 244.405 333.294 245.959C332.939 247.513 332.761 249.178 332.761 250.954C332.761 254.994 333.76 258.111 335.758 260.304C337.756 262.506 340.42 263.607 343.75 263.607C345.437 263.607 346.844 263.527 347.972 263.367C349.108 263.216 349.987 263.052 350.609 262.874ZM350.609 235.171V217.656L356.802 216.591V267.27C355.382 267.669 353.561 268.069 351.342 268.468C349.122 268.868 346.569 269.068 343.683 269.068C341.019 269.068 338.622 268.646 336.491 267.802C334.36 266.959 332.539 265.76 331.03 264.206C329.52 262.652 328.357 260.752 327.54 258.506C326.715 256.268 326.302 253.751 326.302 250.954C326.302 248.29 326.643 245.848 327.327 243.628C328.02 241.408 329.032 239.499 330.364 237.901C331.696 236.303 333.33 235.06 335.265 234.172C337.192 233.284 339.399 232.84 341.885 232.84C343.883 232.84 345.65 233.106 347.186 233.639C348.713 234.172 349.854 234.682 350.609 235.171ZM380.91 251.02C380.91 247.957 381.354 245.28 382.242 242.989C383.13 240.707 384.306 238.811 385.771 237.302C387.236 235.792 388.924 234.66 390.833 233.905C392.742 233.151 394.695 232.773 396.693 232.773C401.355 232.773 404.929 234.225 407.415 237.129C409.901 240.041 411.144 244.472 411.144 250.421C411.144 250.687 411.144 251.029 411.144 251.447C411.144 251.873 411.122 252.264 411.078 252.619H387.37C387.636 256.215 388.679 258.945 390.5 260.81C392.32 262.675 395.161 263.607 399.024 263.607C401.199 263.607 403.028 263.416 404.511 263.034C406.003 262.661 407.126 262.297 407.881 261.942L408.747 267.137C407.992 267.536 406.669 267.958 404.778 268.402C402.895 268.846 400.755 269.068 398.358 269.068C395.339 269.068 392.728 268.611 390.526 267.696C388.333 266.79 386.526 265.538 385.105 263.94C383.685 262.342 382.628 260.441 381.935 258.239C381.252 256.046 380.91 253.64 380.91 251.02ZM387.503 247.624H404.684C404.729 244.827 404.027 242.527 402.58 240.725C401.142 238.931 399.157 238.034 396.626 238.034C395.206 238.034 393.949 238.31 392.857 238.86C391.774 239.419 390.855 240.143 390.1 241.031C389.345 241.919 388.755 242.94 388.329 244.094C387.911 245.249 387.636 246.425 387.503 247.624ZM420.055 268.269V234.638C421.475 234.283 423.362 233.905 425.715 233.506C428.068 233.106 430.777 232.906 433.84 232.906C436.593 232.906 438.879 233.293 440.699 234.065C442.52 234.847 443.976 235.934 445.068 237.328C446.151 238.731 446.915 240.41 447.359 242.363C447.803 244.316 448.025 246.47 448.025 248.823V268.269H441.831V250.155C441.831 248.024 441.689 246.203 441.405 244.694C441.112 243.184 440.633 241.963 439.967 241.031C439.301 240.099 438.413 239.419 437.303 238.993C436.193 238.576 434.817 238.367 433.174 238.367C432.508 238.367 431.82 238.389 431.11 238.434C430.399 238.478 429.724 238.532 429.085 238.594C428.437 238.665 427.86 238.745 427.354 238.833C426.839 238.922 426.47 238.989 426.248 239.033V268.269H420.055ZM479.991 266.271V264.806C479.458 265.161 478.428 265.614 476.901 266.164C475.364 266.724 473.575 267.003 471.533 267.003C469.446 267.003 467.48 266.67 465.633 266.004C463.795 265.338 462.187 264.304 460.811 262.901C459.435 261.507 458.347 259.767 457.548 257.68C456.749 255.593 456.349 253.107 456.349 250.221C456.349 247.691 456.727 245.369 457.481 243.255C458.236 241.151 459.333 239.331 460.771 237.795C462.219 236.267 463.986 235.069 466.072 234.198C468.159 233.337 470.512 232.906 473.131 232.906C476.017 232.906 478.534 233.115 480.683 233.532C482.841 233.959 484.652 234.349 486.117 234.705V265.605C486.117 270.932 484.741 274.795 481.988 277.192C479.236 279.59 475.063 280.789 469.469 280.789C467.293 280.789 465.237 280.611 463.302 280.256C461.375 279.901 459.701 279.479 458.281 278.991L459.413 273.596C460.656 274.085 462.174 274.52 463.968 274.902C465.77 275.274 467.648 275.461 469.602 275.461C473.287 275.461 475.942 274.728 477.567 273.263C479.183 271.798 479.991 269.467 479.991 266.271ZM479.924 259.345V239.1C479.302 238.922 478.468 238.754 477.42 238.594C476.381 238.443 474.974 238.367 473.198 238.367C469.868 238.367 467.306 239.455 465.513 241.63C463.71 243.806 462.809 246.692 462.809 250.288C462.809 252.286 463.066 253.995 463.581 255.416C464.088 256.836 464.771 258.013 465.633 258.945C466.503 259.878 467.502 260.566 468.629 261.01C469.766 261.454 470.934 261.676 472.132 261.676C473.775 261.676 475.285 261.44 476.661 260.97C478.037 260.508 479.125 259.966 479.924 259.345ZM502.966 233.639V268.269H496.773V233.639H502.966ZM499.836 227.379C498.726 227.379 497.78 227.011 496.999 226.274C496.227 225.545 495.84 224.56 495.84 223.317C495.84 222.074 496.227 221.084 496.999 220.347C497.78 219.618 498.726 219.254 499.836 219.254C500.946 219.254 501.887 219.618 502.66 220.347C503.441 221.084 503.832 222.074 503.832 223.317C503.832 224.56 503.441 225.545 502.66 226.274C501.887 227.011 500.946 227.379 499.836 227.379ZM513.608 268.269V234.638C515.029 234.283 516.916 233.905 519.269 233.506C521.622 233.106 524.33 232.906 527.393 232.906C530.146 232.906 532.432 233.293 534.253 234.065C536.073 234.847 537.529 235.934 538.621 237.328C539.705 238.731 540.468 240.41 540.912 242.363C541.356 244.316 541.578 246.47 541.578 248.823V268.269H535.385V250.155C535.385 248.024 535.243 246.203 534.959 244.694C534.665 243.184 534.186 241.963 533.52 241.031C532.854 240.099 531.966 239.419 530.856 238.993C529.746 238.576 528.37 238.367 526.727 238.367C526.061 238.367 525.373 238.389 524.663 238.434C523.952 238.478 523.278 238.532 522.638 238.594C521.99 238.665 521.413 238.745 520.907 238.833C520.392 238.922 520.023 238.989 519.801 239.033V268.269H513.608ZM549.902 251.02C549.902 247.957 550.346 245.28 551.234 242.989C552.122 240.707 553.299 238.811 554.764 237.302C556.229 235.792 557.916 234.66 559.825 233.905C561.734 233.151 563.688 232.773 565.686 232.773C570.347 232.773 573.921 234.225 576.408 237.129C578.894 240.041 580.137 244.472 580.137 250.421C580.137 250.687 580.137 251.029 580.137 251.447C580.137 251.873 580.115 252.264 580.07 252.619H556.362C556.629 256.215 557.672 258.945 559.492 260.81C561.313 262.675 564.154 263.607 568.016 263.607C570.192 263.607 572.026 263.416 573.517 263.034C575 262.661 576.119 262.297 576.874 261.942L577.739 267.137C576.985 267.536 575.666 267.958 573.784 268.402C571.892 268.846 569.748 269.068 567.351 269.068C564.332 269.068 561.725 268.611 559.532 267.696C557.33 266.79 555.519 265.538 554.098 263.94C552.677 262.342 551.625 260.441 550.941 258.239C550.249 256.046 549.902 253.64 549.902 251.02ZM556.495 247.624H573.677C573.721 244.827 573.024 242.527 571.586 240.725C570.139 238.931 568.15 238.034 565.619 238.034C564.198 238.034 562.946 238.31 561.863 238.86C560.771 239.419 559.847 240.143 559.093 241.031C558.338 241.919 557.752 242.94 557.335 244.094C556.908 245.249 556.629 246.425 556.495 247.624ZM587.129 251.02C587.129 247.957 587.573 245.28 588.461 242.989C589.349 240.707 590.526 238.811 591.991 237.302C593.456 235.792 595.143 234.66 597.052 233.905C598.961 233.151 600.915 232.773 602.912 232.773C607.574 232.773 611.148 234.225 613.634 237.129C616.121 240.041 617.364 244.472 617.364 250.421C617.364 250.687 617.364 251.029 617.364 251.447C617.364 251.873 617.341 252.264 617.297 252.619H593.589C593.856 256.215 594.899 258.945 596.719 260.81C598.539 262.675 601.381 263.607 605.243 263.607C607.419 263.607 609.248 263.416 610.731 263.034C612.223 262.661 613.346 262.297 614.101 261.942L614.966 267.137C614.211 267.536 612.888 267.958 610.997 268.402C609.115 268.846 606.975 269.068 604.577 269.068C601.558 269.068 598.948 268.611 596.746 267.696C594.553 266.79 592.746 265.538 591.325 263.94C589.904 262.342 588.848 260.441 588.155 258.239C587.471 256.046 587.129 253.64 587.129 251.02ZM593.722 247.624H610.904C610.948 244.827 610.247 242.527 608.8 240.725C607.361 238.931 605.376 238.034 602.846 238.034C601.425 238.034 600.169 238.31 599.077 238.86C597.993 239.419 597.074 240.143 596.32 241.031C595.565 241.919 594.974 242.94 594.548 244.094C594.131 245.249 593.856 246.425 593.722 247.624ZM639.074 232.906C639.607 232.906 640.215 232.938 640.899 233C641.591 233.071 642.27 233.16 642.936 233.266C643.602 233.382 644.211 233.493 644.761 233.599C645.32 233.714 645.733 233.817 646 233.905L644.934 239.3C644.446 239.122 643.633 238.909 642.497 238.66C641.369 238.421 639.917 238.301 638.141 238.301C636.987 238.301 635.842 238.421 634.705 238.66C633.577 238.909 632.836 239.078 632.481 239.166V268.269H626.287V235.104C627.753 234.571 629.573 234.07 631.748 233.599C633.924 233.137 636.366 232.906 639.074 232.906Z" fill="white"/>
<path d="M311.742 10.9613C294.224 10.9613 283.472 17.5306 283.472 22.0097C283.472 26.4889 287.256 30.6694 306.565 30.6694C325.874 30.6694 365.092 6.18357 405.106 6.18357C445.914 6.18835 445.914 26.6871 445.914 26.6871C445.914 26.6871 440.53 22.0097 413.467 22.0097C373.054 22.0097 335.43 43.8081 308.658 43.8081C281.881 43.8081 274.956 31.8447 274.956 22.4875C274.956 14.4251 285.464 0.211426 311.343 0.211426C337.221 0.211426 341.603 15.9373 341.603 15.9373C341.603 15.9373 329.259 10.9613 311.742 10.9613ZM262.77 25.6934C262.77 25.6934 257.594 60.929 315.125 60.929C372.658 60.929 394.556 36.6415 439.149 36.6415C452.656 36.9282 455.073 43.3112 455.073 43.3112C455.073 43.3112 460.448 25.6934 423.818 25.6934C387.192 25.6934 344.249 49.3837 309.554 49.3837C274.856 49.3837 262.77 25.6934 262.77 25.6934Z" fill="white"/>
<path d="M617.068 49.5793H469.864V59.1148H617.068V49.5793Z" fill="white"/>
<path d="M248.136 49.5793H100.932V59.1148H248.136V49.5793Z" fill="white"/>
<path d="M617.068 30.5083H469.864V40.0438H617.068V30.5083Z" fill="white"/>
<path d="M248.136 30.5083H100.932V40.0438H248.136V30.5083Z" fill="white"/>
</svg>
