<svg xmlns="http://www.w3.org/2000/svg" width="718" height="281" fill="none"><path fill="#fff" d="M43.686 94.995h12.833a695.877 695.877 0 0 1-7.678 8.27 629.261 629.261 0 0 1-8.928 9.324 1138.457 1138.457 0 0 1-9.28 9.389 888.788 888.788 0 0 1-8.665 8.555c3.144 2.194 6.471 4.9 9.981 8.117a171.336 171.336 0 0 1 10.31 10.311 181.296 181.296 0 0 1 9.5 11.188c2.954 3.802 5.418 7.422 7.392 10.858H46.647c-2.194-3.436-4.716-6.895-7.568-10.376a142.236 142.236 0 0 0-9.038-9.981 148.027 148.027 0 0 0-9.653-8.819c-3.261-2.706-6.427-5.009-9.499-6.91v36.086H.25V94.995h10.64v33.564a480.874 480.874 0 0 0 8.445-8.183 670.09 670.09 0 0 0 9.104-9.147 858.625 858.625 0 0 0 8.512-8.841c2.662-2.808 4.907-5.272 6.735-7.393Zm44.203 68.664c2.413 0 4.548-.059 6.406-.176 1.872-.102 3.43-.3 4.672-.592v-17.002c-.73-.365-1.923-.68-3.575-.943-1.638-.249-3.627-.373-5.967-.373-1.536 0-3.166.11-4.892.329-1.711.22-3.284.673-4.717 1.36a10.297 10.297 0 0 0-3.554 2.852c-.95 1.214-1.425 2.808-1.425 4.782 0 3.657 1.17 6.194 3.51 7.613 2.34 1.433 5.52 2.15 9.542 2.15Zm-.877-51.114c4.095 0 7.546.526 10.354 1.579 2.823 1.068 5.089 2.567 6.801 4.497 1.725 1.946 2.954 4.249 3.685 6.911.731 2.676 1.097 5.623 1.097 8.84v35.648c-.878.147-2.106.344-3.686.593a97.276 97.276 0 0 1-5.308.724 228.06 228.06 0 0 1-6.428.614 90.038 90.038 0 0 1-6.844.263c-3.218 0-6.18-.329-8.885-.987-2.706-.658-5.046-1.704-7.02-3.137-1.974-1.419-3.51-3.298-4.607-5.638-1.097-2.34-1.645-5.155-1.645-8.446 0-3.144.636-5.85 1.909-8.117a15.387 15.387 0 0 1 5.22-5.484c2.194-1.389 4.754-2.413 7.679-3.071 2.925-.658 5.996-.987 9.213-.987 1.024 0 2.084.051 3.181.153 1.097.117 2.135.263 3.115.439.995.19 1.858.358 2.589.505.731.146 1.243.255 1.535.329v-2.852c0-1.682-.182-3.349-.548-5.002-.366-1.638-1.024-3.1-1.974-4.387-.951-1.273-2.253-2.296-3.905-3.072-1.638-.76-3.773-1.14-6.406-1.14-3.364 0-6.31.234-8.84.702-2.516.482-4.395.98-5.638 1.491l-1.207-8.445c1.316-.585 3.51-1.156 6.581-1.712 3.071-.541 6.399-.811 9.982-.811Zm38.828 58.462v-55.391c2.34-.585 5.426-1.207 9.258-1.865 3.846-.658 8.285-.987 13.316-.987 3.656 0 6.735.49 9.235 1.47 2.487.994 4.571 2.442 6.253 4.344.511-.366 1.316-.878 2.413-1.536 1.096-.658 2.442-1.302 4.036-1.931 1.623-.614 3.422-1.162 5.397-1.645 1.974-.468 4.095-.702 6.361-.702 4.373 0 7.949.636 10.728 1.909 2.793 1.287 4.972 3.1 6.537 5.44 1.579 2.34 2.64 5.119 3.181 8.336.556 3.218.833 6.728.833 10.53v32.028h-10.2v-29.834c0-3.364-.169-6.252-.505-8.665-.322-2.413-.943-4.424-1.865-6.033-.906-1.609-2.149-2.801-3.729-3.576-1.565-.76-3.59-1.141-6.076-1.141-3.452 0-6.289.454-8.512 1.361-2.223.921-3.737 1.747-4.541 2.478.585 1.902 1.016 3.986 1.294 6.253.307 2.266.461 4.643.461 7.129v32.028h-10.201v-29.834c0-3.364-.183-6.252-.548-8.665-.366-2.413-1.009-4.424-1.931-6.033-.907-1.609-2.15-2.801-3.729-3.576-1.565-.76-3.561-1.141-5.989-1.141-1.009 0-2.106.037-3.291.11a104.25 104.25 0 0 0-3.334.263 50.334 50.334 0 0 0-2.896.395c-.892.146-1.477.256-1.755.329v48.152H125.84Zm104.619-85.116v30.603c1.243-.805 3.13-1.646 5.66-2.523 2.515-.878 5.418-1.317 8.709-1.317 4.095 0 7.736.732 10.925 2.194 3.173 1.463 5.857 3.51 8.051 6.143 2.193 2.632 3.86 5.776 5.001 9.433 1.126 3.656 1.689 7.678 1.689 12.065 0 4.607-.672 8.753-2.018 12.438-1.36 3.701-3.283 6.83-5.769 9.39-2.487 2.559-5.485 4.533-8.995 5.923-3.51 1.389-7.458 2.084-11.846 2.084-4.753 0-8.957-.329-12.614-.987-3.656-.659-6.654-1.317-8.994-1.975V87.646l10.201-1.755Zm0 40.145v36.087c1.024.292 2.472.563 4.344.812 1.857.263 4.175.394 6.954.394 5.484 0 9.871-1.813 13.162-5.44 3.291-3.612 4.936-8.746 4.936-15.4 0-2.925-.293-5.667-.878-8.226-.585-2.56-1.535-4.775-2.851-6.647-1.317-1.858-3.013-3.32-5.09-4.388-2.091-1.053-4.599-1.579-7.524-1.579-2.779 0-5.338.475-7.678 1.426-2.34.95-4.132 1.937-5.375 2.961Zm64.605-12.065v57.036h-10.201v-57.036h10.201Zm-5.155-10.311c-1.828 0-3.379-.607-4.651-1.821-1.287-1.199-1.93-2.822-1.93-4.87 0-2.047.643-3.678 1.93-4.892 1.272-1.199 2.823-1.798 4.651-1.798 1.828 0 3.385.6 4.672 1.798 1.273 1.214 1.909 2.845 1.909 4.892 0 2.048-.636 3.671-1.909 4.87-1.287 1.214-2.844 1.821-4.672 1.821Zm60.546 10.311v7.678c-1.535 1.682-3.568 4.058-6.098 7.129a506.11 506.11 0 0 0-8.117 10.201 345.505 345.505 0 0 0-8.665 11.737c-2.881 4.094-5.419 8.007-7.612 11.736h31.37v8.555h-43.545v-6.8c1.755-3.218 3.912-6.764 6.471-10.64a300.111 300.111 0 0 1 8.051-11.582 484.943 484.943 0 0 1 8.226-10.859c2.677-3.393 5.002-6.26 6.977-8.6h-28.19v-8.555h41.132Zm60.306 57.695c-1.536 0-3.196-.037-4.98-.11-1.799-.073-3.59-.183-5.375-.329a122.68 122.68 0 0 1-5.33-.549 40.678 40.678 0 0 1-4.826-.877v-73.71a40.836 40.836 0 0 1 4.826-.877 132.65 132.65 0 0 1 10.639-.877 119.03 119.03 0 0 1 4.936-.11c4.388 0 8.504.33 12.351.987 3.831.659 7.159 1.777 9.981 3.357 2.808 1.565 5.017 3.627 6.625 6.186 1.609 2.559 2.413 5.704 2.413 9.433 0 4.168-.987 7.583-2.961 10.245-1.975 2.676-4.607 4.672-7.898 5.989 4.461 1.316 8.008 3.4 10.64 6.252 2.632 2.852 3.949 6.873 3.949 12.065 0 7.605-2.794 13.323-8.38 17.155-5.602 3.846-14.472 5.77-26.61 5.77Zm3.729-36.087h-13.711v26.763c.805.073 1.755.147 2.852.22.951.073 2.07.124 3.357.153 1.272.044 2.749.066 4.431.066 3.144 0 6.128-.205 8.95-.614 2.808-.395 5.273-1.104 7.393-2.128 2.121-1.024 3.825-2.45 5.112-4.278 1.272-1.828 1.908-4.131 1.908-6.91 0-2.486-.475-4.592-1.426-6.318-.95-1.711-2.318-3.079-4.102-4.102-1.799-1.024-3.942-1.755-6.428-2.194-2.486-.439-5.265-.658-8.336-.658Zm-13.711-32.028v23.472h11.188c2.633 0 5.119-.182 7.459-.548 2.34-.366 4.373-1.024 6.099-1.974 1.711-.951 3.063-2.194 4.058-3.73.98-1.535 1.47-3.473 1.47-5.813 0-2.194-.512-4.044-1.536-5.55-1.024-1.492-2.428-2.698-4.212-3.62-1.799-.907-3.905-1.579-6.318-2.018-2.413-.439-4.972-.658-7.678-.658-2.705 0-4.826.036-6.362.11a60.137 60.137 0 0 0-4.168.329Zm78.645 60.108c2.413 0 4.556-.059 6.428-.176 1.857-.102 3.407-.3 4.651-.592v-17.002c-.732-.365-1.916-.68-3.554-.943-1.653-.249-3.649-.373-5.989-.373-1.536 0-3.159.11-4.87.329-1.726.22-3.298.673-4.717 1.36-1.433.702-2.625 1.653-3.575 2.852-.951 1.214-1.426 2.808-1.426 4.782 0 3.657 1.17 6.194 3.51 7.613 2.34 1.433 5.52 2.15 9.542 2.15Zm-.877-51.114c4.095 0 7.553.526 10.376 1.579 2.808 1.068 5.075 2.567 6.801 4.497 1.711 1.946 2.932 4.249 3.663 6.911.731 2.676 1.097 5.623 1.097 8.84v35.648c-.877.147-2.099.344-3.664.593-1.579.263-3.356.504-5.33.724-1.975.219-4.11.424-6.406.614a90.897 90.897 0 0 1-6.866.263c-3.218 0-6.179-.329-8.885-.987-2.705-.658-5.045-1.704-7.02-3.137-1.974-1.419-3.51-3.298-4.607-5.638-1.096-2.34-1.645-5.155-1.645-8.446 0-3.144.644-5.85 1.931-8.117a15.197 15.197 0 0 1 5.199-5.484c2.193-1.389 4.753-2.413 7.678-3.071 2.925-.658 5.996-.987 9.213-.987 1.024 0 2.084.051 3.181.153 1.097.117 2.143.263 3.137.439.98.19 1.836.358 2.567.505.731.146 1.243.255 1.536.329v-2.852c0-1.682-.183-3.349-.549-5.002-.365-1.638-1.024-3.1-1.974-4.387-.951-1.273-2.245-2.296-3.883-3.072-1.653-.76-3.795-1.14-6.428-1.14-3.363 0-6.303.234-8.818.702-2.531.482-4.417.98-5.66 1.491l-1.207-8.445c1.316-.585 3.51-1.156 6.581-1.712 3.072-.541 6.399-.811 9.982-.811Zm74.586 55.172v-2.413c-.877.585-2.581 1.331-5.111 2.237-2.516.922-5.455 1.382-8.819 1.382-3.437 0-6.676-.548-9.718-1.645a21.038 21.038 0 0 1-7.941-5.111c-2.267-2.296-4.059-5.163-5.375-8.6-1.316-3.436-1.974-7.531-1.974-12.284 0-4.169.621-7.993 1.864-11.474 1.243-3.466 3.05-6.464 5.419-8.994 2.384-2.515 5.294-4.49 8.731-5.923 3.437-1.419 7.312-2.128 11.627-2.128 4.753 0 8.899.344 12.438 1.031 3.554.702 6.537 1.346 8.95 1.931v50.894c0 8.775-2.266 15.137-6.8 19.085-4.534 3.949-11.408 5.923-20.621 5.923-3.583 0-6.969-.292-10.157-.877-3.174-.585-5.93-1.28-8.27-2.084l1.864-8.885c2.048.805 4.549 1.521 7.503 2.15 2.969.614 6.062.922 9.279.922 6.07 0 10.435-1.207 13.097-3.62 2.676-2.413 4.014-6.252 4.014-11.517Zm-.109-11.407v-33.345c-1.024-.293-2.399-.57-4.125-.834-1.711-.248-4.029-.373-6.954-.373-5.484 0-9.711 1.792-12.679 5.375-2.955 3.583-4.432 8.336-4.432 14.259 0 3.291.417 6.106 1.251 8.446.848 2.34 1.981 4.278 3.4 5.813 1.433 1.536 3.078 2.669 4.936 3.401a15.73 15.73 0 0 0 5.769 1.097c2.706 0 5.192-.388 7.459-1.163 2.267-.761 4.058-1.653 5.375-2.676Zm37.951 14.697h-10.201v-83.36l10.201-1.756v29.177a35.26 35.26 0 0 1 6.077-1.712 35.83 35.83 0 0 1 6.427-.592c4.534 0 8.3.636 11.298 1.909 2.998 1.287 5.389 3.078 7.173 5.374 1.799 2.311 3.064 5.075 3.795 8.293.732 3.217 1.097 6.764 1.097 10.639v32.028h-10.201v-29.834c0-3.51-.241-6.508-.723-8.994-.468-2.487-1.251-4.498-2.348-6.033-1.097-1.536-2.559-2.655-4.387-3.357-1.828-.687-4.095-1.031-6.801-1.031-1.097 0-2.23.074-3.4.22a88.36 88.36 0 0 0-3.356.482 39.564 39.564 0 0 0-2.852.615c-.834.219-1.433.402-1.799.548v47.384Zm62.609-57.036v57.036h-10.201v-57.036h10.201Zm-5.156-10.311c-1.828 0-3.378-.607-4.65-1.821-1.287-1.199-1.931-2.822-1.931-4.87 0-2.047.644-3.678 1.931-4.892 1.272-1.199 2.822-1.798 4.65-1.798 1.829 0 3.386.6 4.673 1.798 1.272 1.214 1.909 2.845 1.909 4.892 0 2.048-.637 3.671-1.909 4.87-1.287 1.214-2.844 1.821-4.673 1.821Zm19.525 38.939c0-5.046.731-9.455 2.193-13.228 1.463-3.759 3.401-6.881 5.814-9.368 2.413-2.486 5.191-4.35 8.336-5.594 3.144-1.243 6.362-1.864 9.652-1.864 7.678 0 13.565 2.391 17.66 7.173 4.095 4.797 6.142 12.095 6.142 21.894v1.689c0 .702-.036 1.345-.11 1.93h-39.048c.439 5.923 2.157 10.42 5.155 13.492 2.998 3.071 7.678 4.606 14.04 4.606 3.583 0 6.603-.314 9.06-.943 2.443-.614 4.285-1.214 5.528-1.799l1.426 8.556c-1.243.658-3.415 1.353-6.515 2.084-3.115.731-6.647 1.097-10.596 1.097-4.972 0-9.264-.753-12.877-2.26-3.627-1.492-6.61-3.554-8.95-6.186-2.34-2.633-4.073-5.762-5.199-9.389-1.141-3.613-1.711-7.576-1.711-11.89Zm10.859-5.594h28.298c.074-4.607-1.074-8.395-3.444-11.364-2.383-2.954-5.659-4.431-9.827-4.431-2.34 0-4.403.453-6.187 1.36-1.799.921-3.32 2.113-4.563 3.576-1.243 1.462-2.208 3.144-2.895 5.045a24.545 24.545 0 0 0-1.382 5.814ZM78.46 268.269H72v-46.151h27.837v5.527H78.46v13.919h18.98v5.461H78.46v21.244Zm39.824-35.363c.533 0 1.141.032 1.825.094.692.071 1.372.16 2.038.266.666.116 1.274.227 1.824.333.56.115.973.218 1.239.306l-1.066 5.395c-.488-.178-1.3-.391-2.437-.64-1.128-.239-2.579-.359-4.355-.359-1.155 0-2.3.12-3.437.359-1.127.249-1.869.418-2.224.506v29.103h-6.193v-33.165c1.465-.533 3.285-1.034 5.461-1.505 2.175-.462 4.617-.693 7.325-.693Zm43.487 18.048c0 2.752-.4 5.239-1.199 7.459-.799 2.219-1.922 4.128-3.37 5.727a14.646 14.646 0 0 1-5.154 3.689c-1.998.87-4.173 1.305-6.526 1.305-2.353 0-4.529-.435-6.527-1.305a14.79 14.79 0 0 1-5.168-3.689c-1.438-1.599-2.557-3.508-3.356-5.727-.799-2.22-1.199-4.707-1.199-7.459 0-2.708.4-5.181 1.199-7.419.799-2.246 1.918-4.169 3.356-5.767a14.943 14.943 0 0 1 5.168-3.703c1.998-.861 4.174-1.292 6.527-1.292 2.353 0 4.528.431 6.526 1.292a14.797 14.797 0 0 1 5.154 3.703c1.448 1.598 2.571 3.521 3.37 5.767.799 2.238 1.199 4.711 1.199 7.419Zm-6.473 0c0-3.907-.875-7.006-2.624-9.297-1.749-2.282-4.133-3.423-7.152-3.423s-5.408 1.141-7.166 3.423c-1.749 2.291-2.624 5.39-2.624 9.297 0 3.907.875 7.001 2.624 9.283 1.758 2.291 4.147 3.437 7.166 3.437s5.403-1.146 7.152-3.437c1.749-2.282 2.624-5.376 2.624-9.283Zm15.184 17.315v-33.631c1.42-.355 3.307-.733 5.66-1.132 2.353-.4 5.061-.6 8.125-.6 2.752 0 5.039.387 6.859 1.159 1.82.782 3.277 1.869 4.369 3.263 1.083 1.403 1.847 3.082 2.291 5.035.444 1.953.666 4.107.666 6.46v19.446h-6.194v-18.114c0-2.131-.142-3.952-.426-5.461-.293-1.51-.772-2.731-1.438-3.663-.666-.932-1.554-1.612-2.664-2.038-1.11-.417-2.486-.626-4.129-.626-.666 0-1.354.022-2.065.067a58.34 58.34 0 0 0-2.024.16c-.648.071-1.225.151-1.732.239-.515.089-.883.156-1.105.2v29.236h-6.193Zm44.019-45.352v10.722h13.119v5.194h-13.119v15.983c0 1.732.133 3.161.4 4.289.266 1.137.666 2.025 1.198 2.664a4.301 4.301 0 0 0 1.998 1.372c.799.266 1.732.399 2.797.399 1.865 0 3.366-.213 4.502-.639 1.128-.417 1.914-.715 2.358-.892l1.198 5.128c-.621.31-1.709.701-3.263 1.172-1.554.461-3.33.692-5.327.692-2.353 0-4.294-.302-5.821-.906-1.536-.594-2.77-1.491-3.703-2.69-.932-1.199-1.585-2.677-1.957-4.435-.382-1.749-.573-3.778-.573-6.087v-30.9l6.193-1.066Zm14.784 28.303v-5.794h16.449v5.794h-16.449Zm21.577-.2c0-3.063.444-5.74 1.332-8.031.888-2.282 2.065-4.178 3.53-5.687a14.328 14.328 0 0 1 5.061-3.397 15.826 15.826 0 0 1 5.86-1.132c4.662 0 8.236 1.452 10.722 4.356 2.487 2.912 3.73 7.343 3.73 13.292v1.026c0 .426-.023.817-.067 1.172h-23.708c.266 3.596 1.31 6.326 3.13 8.191 1.82 1.865 4.662 2.797 8.524 2.797 2.176 0 4.005-.191 5.488-.573 1.491-.373 2.615-.737 3.369-1.092l.866 5.195c-.755.399-2.078.821-3.969 1.265-1.882.444-4.022.666-6.42.666-3.019 0-5.629-.457-7.831-1.372-2.194-.906-4-2.158-5.421-3.756-1.421-1.598-2.478-3.499-3.17-5.701-.684-2.193-1.026-4.599-1.026-7.219Zm6.593-3.396h17.182c.044-2.797-.657-5.097-2.105-6.899-1.438-1.794-3.423-2.691-5.953-2.691-1.421 0-2.677.276-3.769.826a8.974 8.974 0 0 0-2.758 2.171 10.08 10.08 0 0 0-1.771 3.063 15.342 15.342 0 0 0-.826 3.53Zm32.552 20.645v-33.631c1.421-.355 3.308-.733 5.661-1.132 2.353-.4 5.061-.6 8.124-.6 2.753 0 5.039.387 6.86 1.159 1.82.782 3.276 1.869 4.368 3.263 1.084 1.403 1.847 3.082 2.291 5.035.444 1.953.666 4.107.666 6.46v19.446h-6.193v-18.114c0-2.131-.142-3.952-.426-5.461-.293-1.51-.773-2.731-1.439-3.663-.666-.932-1.554-1.612-2.664-2.038-1.11-.417-2.486-.626-4.129-.626-.666 0-1.354.022-2.064.067a58.6 58.6 0 0 0-2.025.16c-.648.071-1.225.151-1.731.239-.515.089-.884.156-1.106.2v29.236h-6.193Zm60.602-5.395v-21.909c-.755-.622-1.843-1.221-3.263-1.799-1.421-.577-2.975-.865-4.662-.865-1.776 0-3.294.319-4.555.959a8.44 8.44 0 0 0-3.103 2.663c-.8 1.137-1.377 2.482-1.732 4.036-.355 1.554-.533 3.219-.533 4.995 0 4.04.999 7.157 2.997 9.35 1.998 2.202 4.662 3.303 7.992 3.303 1.687 0 3.094-.08 4.222-.24 1.136-.151 2.015-.315 2.637-.493Zm0-27.703v-17.515l6.193-1.065v50.679c-1.42.399-3.241.799-5.46 1.198-2.22.4-4.773.6-7.659.6-2.664 0-5.061-.422-7.192-1.266-2.131-.843-3.952-2.042-5.461-3.596-1.51-1.554-2.673-3.454-3.49-5.7-.825-2.238-1.238-4.755-1.238-7.552 0-2.664.341-5.106 1.025-7.326.693-2.22 1.705-4.129 3.037-5.727a13.765 13.765 0 0 1 4.901-3.729c1.927-.888 4.134-1.332 6.62-1.332 1.998 0 3.765.266 5.301.799 1.527.533 2.668 1.043 3.423 1.532Zm30.301 15.849c0-3.063.444-5.74 1.332-8.031.888-2.282 2.064-4.178 3.529-5.687a14.332 14.332 0 0 1 5.062-3.397 15.822 15.822 0 0 1 5.86-1.132c4.662 0 8.236 1.452 10.722 4.356 2.486 2.912 3.729 7.343 3.729 13.292v1.026c0 .426-.022.817-.066 1.172H387.37c.266 3.596 1.309 6.326 3.13 8.191 1.82 1.865 4.661 2.797 8.524 2.797 2.175 0 4.004-.191 5.487-.573 1.492-.373 2.615-.737 3.37-1.092l.866 5.195c-.755.399-2.078.821-3.969 1.265-1.883.444-4.023.666-6.42.666-3.019 0-5.63-.457-7.832-1.372-2.193-.906-4-2.158-5.421-3.756-1.42-1.598-2.477-3.499-3.17-5.701-.683-2.193-1.025-4.599-1.025-7.219Zm6.593-3.396h17.181c.045-2.797-.657-5.097-2.104-6.899-1.438-1.794-3.423-2.691-5.954-2.691-1.42 0-2.677.276-3.769.826a8.982 8.982 0 0 0-2.757 2.171 10.06 10.06 0 0 0-1.771 3.063 15.29 15.29 0 0 0-.826 3.53Zm32.552 20.645v-33.631c1.42-.355 3.307-.733 5.66-1.132 2.353-.4 5.062-.6 8.125-.6 2.753 0 5.039.387 6.859 1.159 1.821.782 3.277 1.869 4.369 3.263 1.083 1.403 1.847 3.082 2.291 5.035.444 1.953.666 4.107.666 6.46v19.446h-6.194v-18.114c0-2.131-.142-3.952-.426-5.461-.293-1.51-.772-2.731-1.438-3.663-.666-.932-1.554-1.612-2.664-2.038-1.11-.417-2.486-.626-4.129-.626-.666 0-1.354.022-2.064.067-.711.044-1.386.098-2.025.16-.648.071-1.225.151-1.731.239-.515.089-.884.156-1.106.2v29.236h-6.193Zm59.936-1.998v-1.465c-.533.355-1.563.808-3.09 1.358-1.537.56-3.326.839-5.368.839-2.087 0-4.053-.333-5.9-.999a12.764 12.764 0 0 1-4.822-3.103c-1.376-1.394-2.464-3.134-3.263-5.221-.799-2.087-1.199-4.573-1.199-7.459 0-2.53.378-4.852 1.132-6.966.755-2.104 1.852-3.924 3.29-5.46 1.448-1.528 3.215-2.726 5.301-3.597 2.087-.861 4.44-1.292 7.059-1.292 2.886 0 5.403.209 7.552.626 2.158.427 3.969.817 5.434 1.173v30.9c0 5.327-1.376 9.19-4.129 11.587-2.752 2.398-6.925 3.597-12.519 3.597-2.176 0-4.232-.178-6.167-.533-1.927-.355-3.601-.777-5.021-1.265l1.132-5.395c1.243.489 2.761.924 4.555 1.306 1.802.372 3.68.559 5.634.559 3.685 0 6.34-.733 7.965-2.198 1.616-1.465 2.424-3.796 2.424-6.992Zm-.067-6.926V239.1c-.622-.178-1.456-.346-2.504-.506-1.039-.151-2.446-.227-4.222-.227-3.33 0-5.892 1.088-7.685 3.263-1.803 2.176-2.704 5.062-2.704 8.658 0 1.998.257 3.707.772 5.128.507 1.42 1.19 2.597 2.052 3.529a8.148 8.148 0 0 0 2.996 2.065 9.553 9.553 0 0 0 3.503.666c1.643 0 3.153-.236 4.529-.706 1.376-.462 2.464-1.004 3.263-1.625Zm23.042-25.706v34.63h-6.193v-34.63h6.193Zm-3.13-6.26c-1.11 0-2.056-.368-2.837-1.105-.772-.729-1.159-1.714-1.159-2.957 0-1.243.387-2.233 1.159-2.97.781-.729 1.727-1.093 2.837-1.093s2.051.364 2.824 1.093c.781.737 1.172 1.727 1.172 2.97s-.391 2.228-1.172 2.957c-.773.737-1.714 1.105-2.824 1.105Zm13.772 40.89v-33.631c1.421-.355 3.308-.733 5.661-1.132 2.353-.4 5.061-.6 8.124-.6 2.753 0 5.039.387 6.86 1.159 1.82.782 3.276 1.869 4.368 3.263 1.084 1.403 1.847 3.082 2.291 5.035.444 1.953.666 4.107.666 6.46v19.446h-6.193v-18.114c0-2.131-.142-3.952-.426-5.461-.294-1.51-.773-2.731-1.439-3.663-.666-.932-1.554-1.612-2.664-2.038-1.11-.417-2.486-.626-4.129-.626-.666 0-1.354.022-2.064.067-.711.044-1.385.098-2.025.16-.648.071-1.225.151-1.731.239-.515.089-.884.156-1.106.2v29.236h-6.193Zm36.294-17.249c0-3.063.444-5.74 1.332-8.031.888-2.282 2.065-4.178 3.53-5.687a14.328 14.328 0 0 1 5.061-3.397 15.827 15.827 0 0 1 5.861-1.132c4.661 0 8.235 1.452 10.722 4.356 2.486 2.912 3.729 7.343 3.729 13.292v1.026c0 .426-.022.817-.067 1.172h-23.708c.267 3.596 1.31 6.326 3.13 8.191 1.821 1.865 4.662 2.797 8.524 2.797 2.176 0 4.01-.191 5.501-.573 1.483-.373 2.602-.737 3.357-1.092l.865 5.195c-.754.399-2.073.821-3.955 1.265-1.892.444-4.036.666-6.433.666-3.019 0-5.626-.457-7.819-1.372-2.202-.906-4.013-2.158-5.434-3.756-1.421-1.598-2.473-3.499-3.157-5.701-.692-2.193-1.039-4.599-1.039-7.219Zm6.593-3.396h17.182c.044-2.797-.653-5.097-2.091-6.899-1.447-1.794-3.436-2.691-5.967-2.691-1.421 0-2.673.276-3.756.826a8.919 8.919 0 0 0-2.77 2.171 9.848 9.848 0 0 0-1.758 3.063 14.92 14.92 0 0 0-.84 3.53Zm30.634 3.396c0-3.063.444-5.74 1.332-8.031.888-2.282 2.065-4.178 3.53-5.687a14.328 14.328 0 0 1 5.061-3.397 15.826 15.826 0 0 1 5.86-1.132c4.662 0 8.236 1.452 10.722 4.356 2.487 2.912 3.73 7.343 3.73 13.292v1.026c0 .426-.023.817-.067 1.172h-23.708c.267 3.596 1.31 6.326 3.13 8.191 1.82 1.865 4.662 2.797 8.524 2.797 2.176 0 4.005-.191 5.488-.573 1.492-.373 2.615-.737 3.37-1.092l.865 5.195c-.755.399-2.078.821-3.969 1.265-1.882.444-4.022.666-6.42.666-3.019 0-5.629-.457-7.831-1.372-2.193-.906-4-2.158-5.421-3.756-1.421-1.598-2.477-3.499-3.17-5.701-.684-2.193-1.026-4.599-1.026-7.219Zm6.593-3.396h17.182c.044-2.797-.657-5.097-2.104-6.899-1.439-1.794-3.424-2.691-5.954-2.691-1.421 0-2.677.276-3.769.826a8.958 8.958 0 0 0-2.757 2.171 10.063 10.063 0 0 0-1.772 3.063 15.394 15.394 0 0 0-.826 3.53Zm45.352-14.718c.533 0 1.141.032 1.825.094.692.071 1.371.16 2.037.266.666.116 1.275.227 1.825.333.559.115.972.218 1.239.306l-1.066 5.395c-.488-.178-1.301-.391-2.437-.64-1.128-.239-2.58-.359-4.356-.359-1.154 0-2.299.12-3.436.359-1.128.249-1.869.418-2.224.506v29.103h-6.194v-33.165c1.466-.533 3.286-1.034 5.461-1.505 2.176-.462 4.618-.693 7.326-.693ZM311.742 10.961c-17.518 0-28.27 6.57-28.27 11.049 0 4.479 3.784 8.66 23.093 8.66s58.527-24.486 98.541-24.486c40.808.004 40.808 20.503 40.808 20.503s-5.384-4.677-32.447-4.677c-40.413 0-78.037 21.798-104.809 21.798-26.777 0-33.702-11.963-33.702-21.32 0-8.063 10.508-22.277 36.387-22.277 25.878 0 30.26 15.726 30.26 15.726s-12.344-4.976-29.861-4.976ZM262.77 25.693s-5.176 35.236 52.355 35.236c57.533 0 79.431-24.288 124.024-24.288 13.507.287 15.924 6.67 15.924 6.67s5.375-17.618-31.255-17.618c-36.626 0-79.569 23.69-114.264 23.69-34.698 0-46.784-23.69-46.784-23.69ZM617.068 49.58H469.864v9.535h147.204v-9.536ZM248.136 49.58H100.932v9.535h147.204v-9.536ZM617.068 30.508H469.864v9.536h147.204v-9.536ZM248.136 30.508H100.932v9.536h147.204v-9.536Z"/></svg>