<svg xmlns="http://www.w3.org/2000/svg" width="991" height="1000" fill="none"><path fill="url(#a)" d="M583.933 291c0 77.178-30.76 151.195-85.515 205.768C443.664 551.341 369.401 582 291.967 582c-77.435 0-151.698-30.659-206.452-85.232C30.761 442.195 0 368.178 0 291S30.76 139.805 85.515 85.232C140.27 30.659 214.532 0 291.967 0c77.434 0 151.697 30.659 206.451 85.232 54.755 54.573 85.515 128.59 85.515 205.768Z"/><path fill="url(#b)" d="M990.833 708.9c0 38.228-7.554 76.081-22.232 111.399a291.05 291.05 0 0 1-63.312 94.44 292.133 292.133 0 0 1-94.753 63.102A292.914 292.914 0 0 1 698.767 1000c-77.461 0-151.75-30.67-206.523-85.261C437.471 860.147 406.7 786.104 406.7 708.9c0-77.205 30.771-151.247 85.544-205.839 54.773-54.592 129.062-85.261 206.523-85.261 38.354 0 76.334 7.529 111.769 22.158a292.152 292.152 0 0 1 94.753 63.103 291.039 291.039 0 0 1 63.312 94.44A290.257 290.257 0 0 1 990.833 708.9Z"/><path fill="#000" fill-rule="evenodd" d="M1.067 315.9A291.936 291.936 0 0 0 350.31 577.956 291.933 291.933 0 0 0 328.3 2.233 530.499 530.499 0 0 0 1.067 315.9Z" clip-rule="evenodd" opacity=".05"/><path fill="#000" fill-rule="evenodd" d="M990.067 688A292.034 292.034 0 1 0 672.3 998.8a530.514 530.514 0 0 0 193.01-120.529A530.382 530.382 0 0 0 990.067 688Z" clip-rule="evenodd" opacity=".05"/><path fill="#000" fill-rule="evenodd" d="M14.733 382.433a291.838 291.838 0 0 0 206.46 192.407 291.83 291.83 0 0 0 349.531-196.206 291.83 291.83 0 0 0-56.731-276.456 291.845 291.845 0 0 0-119.326-83.645 496.436 496.436 0 0 0-379.934 363.9Z" clip-rule="evenodd" opacity=".1"/><path fill="#000" fill-rule="evenodd" d="M976.8 619.6a291.931 291.931 0 0 0-482.234-120.223 291.93 291.93 0 0 0-13.368 403.588 291.94 291.94 0 0 0 122.535 81.269A496.438 496.438 0 0 0 976.8 619.6Z" clip-rule="evenodd" opacity=".1"/><path fill="#000" fill-rule="evenodd" d="M25.467 410.033a291.768 291.768 0 0 0 348.587 161.681 291.776 291.776 0 0 0 194.325-186.091 291.774 291.774 0 0 0-40.578-265.98 291.763 291.763 0 0 0-105.868-89.276A479.566 479.566 0 0 0 25.467 410.033Z" clip-rule="evenodd" opacity=".1"/><path fill="#000" fill-rule="evenodd" d="M966.033 591.434A291.867 291.867 0 1 0 575.6 972.9a479.53 479.53 0 0 0 390.433-381.466Z" clip-rule="evenodd" opacity=".1"/><path fill="url(#c)" d="M957.9 502.167a459.579 459.579 0 0 1-35.2 176.378 460.804 460.804 0 0 1-100.243 149.527 462.547 462.547 0 0 1-150.025 99.911 463.776 463.776 0 0 1-176.965 35.084 463.777 463.777 0 0 1-176.966-35.084 462.542 462.542 0 0 1-150.024-99.911A460.794 460.794 0 0 1 68.234 678.545a459.57 459.57 0 0 1-35.2-176.378 459.571 459.571 0 0 1 35.2-176.379 460.805 460.805 0 0 1 100.243-149.527 462.547 462.547 0 0 1 150.024-99.91 463.77 463.77 0 0 1 176.966-35.084A463.768 463.768 0 0 1 672.432 76.35a462.552 462.552 0 0 1 150.025 99.911A460.814 460.814 0 0 1 922.7 325.788a459.58 459.58 0 0 1 35.2 176.379Z"/><path fill="#fff" fill-rule="evenodd" d="M365.433 486.167a145.277 145.277 0 0 1-45.566-48.067 132.86 132.86 0 0 1-15.6-66.433 119.396 119.396 0 0 1 28.133-80.4 169.33 169.33 0 0 1 73.333-49 283.169 283.169 0 0 1 96-16.167A372.767 372.767 0 0 1 565.6 231a230.598 230.598 0 0 1 44.3 11.433 85.879 85.879 0 0 1 34.667 22.134 44.802 44.802 0 0 1 10.7 29.766A43.14 43.14 0 0 1 644 325.367a37.463 37.463 0 0 1-28.3 11.8 50.961 50.961 0 0 1-21.033-4.734 381.415 381.415 0 0 0-50.1-18.333 181.879 181.879 0 0 0-48.267-6 110.164 110.164 0 0 0-60.467 15.467 50.306 50.306 0 0 0-24.133 45.166 45.433 45.433 0 0 0 12.533 31.767A114.215 114.215 0 0 0 458 424.667c14.155 7.022 35.267 16.333 63.333 27.933a65.71 65.71 0 0 1 9.067 3.633 449.969 449.969 0 0 1 78.4 40.3 158.078 158.078 0 0 1 48.267 49.534 130.667 130.667 0 0 1 17.433 68.8 138.37 138.37 0 0 1-24.133 82.933 143.474 143.474 0 0 1-67.5 50.1A284.553 284.553 0 0 1 481.4 764.433a319.658 319.658 0 0 1-138.3-26.166 75.266 75.266 0 0 1-28.467-22.134A49.758 49.758 0 0 1 305.367 686a39.363 39.363 0 0 1 12.166-30.667 44.833 44.833 0 0 1 31.367-11.066 80.235 80.235 0 0 1 36.667 9.433c14.044 7.022 25.122 12.289 33.233 15.8a166.97 166.97 0 0 0 28.667 9.067 163.999 163.999 0 0 0 36.833 3.8 98.338 98.338 0 0 0 61.9-16.5 54.505 54.505 0 0 0 20.867-45.2 48 48 0 0 0-13.067-33 138.894 138.894 0 0 0-38.467-28c-16.955-8.934-40.8-19.822-71.533-32.667a443.054 443.054 0 0 1-78.567-40.833Z" clip-rule="evenodd"/><defs><linearGradient id="a" x1="246.433" x2="337.5" y1="3.533" y2="578.467" gradientUnits="userSpaceOnUse"><stop offset=".012" stop-color="#00B7F0"/><stop offset=".339" stop-color="#009DE5"/><stop offset=".755" stop-color="#0082D9"/><stop offset="1" stop-color="#0078D4"/></linearGradient><linearGradient id="b" x1="445.967" x2="951.533" y1="854.833" y2="562.966" gradientUnits="userSpaceOnUse"><stop stop-color="#0078D4"/><stop offset=".37" stop-color="#007AD5"/><stop offset=".573" stop-color="#0082D9"/><stop offset=".735" stop-color="#0090DF"/><stop offset=".875" stop-color="#00A3E7"/><stop offset="1" stop-color="#00BCF2"/></linearGradient><linearGradient id="c" x1="315" x2="776.367" y1="189.633" y2="988.733" gradientUnits="userSpaceOnUse"><stop stop-color="#00B7F0"/><stop offset="1" stop-color="#007CC1"/></linearGradient></defs></svg>