<svg width="991" height="1000" viewBox="0 0 991 1000" fill="none" xmlns="http://www.w3.org/2000/svg">
<path d="M583.933 291C583.933 368.178 553.173 442.195 498.418 496.768C443.664 551.341 369.401 582 291.967 582C214.532 582 140.269 551.341 85.5151 496.768C30.7607 442.195 3.54797e-08 368.178 0 291C0 213.822 30.7607 139.805 85.5151 85.2319C140.269 30.6588 214.532 0 291.967 0C369.401 0 443.664 30.6588 498.418 85.2319C553.173 139.805 583.933 213.822 583.933 291Z" fill="url(#paint0_linear_973_17172)"/>
<path d="M990.833 708.9C990.833 747.128 983.279 784.981 968.601 820.299C953.923 855.617 932.41 887.707 905.289 914.739C878.168 941.77 845.971 963.212 810.536 977.841C775.101 992.47 737.121 1000 698.767 1000C621.306 1000 547.017 969.33 492.244 914.739C437.471 860.147 406.7 786.104 406.7 708.9C406.7 631.695 437.471 557.653 492.244 503.061C547.017 448.469 621.306 417.8 698.767 417.8C737.121 417.8 775.101 425.329 810.536 439.958C845.971 454.588 878.168 476.03 905.289 503.061C932.41 530.092 953.923 562.183 968.601 597.501C983.279 632.819 990.833 670.672 990.833 708.9Z" fill="url(#paint1_linear_973_17172)"/>
<path opacity="0.05" fill-rule="evenodd" clip-rule="evenodd" d="M1.06665 315.9C5.60165 370.882 25.6235 423.454 58.8121 467.524C92.0008 511.594 136.998 545.357 188.589 564.902C240.179 584.447 296.253 588.973 350.31 577.956C404.368 566.939 454.198 540.829 494.025 502.653C533.852 464.477 562.047 415.797 575.342 362.254C588.637 308.711 586.487 252.496 569.143 200.124C551.799 147.753 519.97 101.367 477.345 66.3435C434.719 31.3196 383.041 9.09104 328.3 2.2334C253.972 27.0971 186.076 68.1214 129.495 122.357C72.9142 176.592 29.0534 242.691 1.06665 315.9Z" fill="black"/>
<path opacity="0.05" fill-rule="evenodd" clip-rule="evenodd" d="M990.067 688C986.253 632.348 966.58 578.952 933.375 534.128C900.17 489.305 854.821 454.929 802.694 435.068C750.566 415.207 693.841 410.691 639.228 422.054C584.614 433.417 534.398 460.185 494.519 499.189C454.64 538.194 426.766 587.805 414.195 642.153C401.624 696.501 404.882 753.312 423.583 805.867C442.284 858.422 475.646 904.521 519.722 938.712C563.799 972.903 616.746 993.754 672.3 998.8C744.597 973.057 810.448 931.935 865.31 878.271C920.171 824.607 962.735 759.712 990.067 688Z" fill="black"/>
<path opacity="0.1" fill-rule="evenodd" clip-rule="evenodd" d="M14.7334 382.433C30.0688 429.346 57.0519 471.603 93.159 505.253C129.266 538.902 173.318 562.844 221.193 574.84C269.069 586.836 319.206 586.493 366.913 573.844C414.621 561.195 458.341 536.653 493.985 502.514C529.628 468.374 556.031 425.752 570.724 378.634C585.417 331.516 587.92 281.441 577.998 233.092C568.077 184.744 546.055 139.702 513.993 102.178C481.93 64.6548 440.875 35.8759 394.667 18.5332C303.606 37.5044 219.707 81.6773 152.532 146.017C85.3579 210.357 37.6108 292.274 14.7334 382.433Z" fill="black"/>
<path opacity="0.1" fill-rule="evenodd" clip-rule="evenodd" d="M976.8 619.6C961.69 572.132 934.685 529.32 898.354 495.238C862.023 461.156 817.575 436.938 769.239 424.888C720.904 412.838 670.289 413.356 622.211 426.395C574.133 439.433 530.191 464.557 494.566 499.377C458.941 534.196 432.819 577.553 418.685 625.32C404.551 673.088 402.875 723.678 413.817 772.276C424.759 820.874 447.955 865.864 481.198 902.965C514.44 940.065 556.623 968.042 603.733 984.234C693.628 964.059 776.136 919.267 842.022 854.87C907.909 790.472 954.576 709.01 976.8 619.6Z" fill="black"/>
<path opacity="0.1" fill-rule="evenodd" clip-rule="evenodd" d="M25.4668 410.033C44.4636 452.838 73.4848 490.441 110.078 519.665C146.672 548.889 189.762 568.875 235.708 577.934C281.654 586.994 329.106 584.86 374.054 571.714C419.001 558.568 460.124 534.795 493.947 502.406C527.771 470.016 553.3 429.96 568.379 385.623C583.458 341.286 587.642 293.971 580.58 247.676C573.517 201.381 555.414 157.467 527.801 119.643C500.188 81.8191 463.876 51.1979 421.933 30.3667C324.934 45.465 234.905 89.9673 164.005 157.863C93.1045 225.76 44.7482 313.779 25.4668 410.033Z" fill="black"/>
<path opacity="0.1" fill-rule="evenodd" clip-rule="evenodd" d="M966.033 591.434C947.134 548.133 918.005 510.067 881.149 480.506C844.294 450.946 800.813 430.775 754.442 421.725C708.071 412.675 660.196 415.018 614.93 428.552C569.664 442.086 528.36 466.406 494.567 499.423C460.773 532.441 435.5 573.169 420.918 618.108C406.337 663.047 402.883 710.855 410.853 757.423C418.823 803.992 437.979 847.93 466.675 885.462C495.371 922.995 532.75 953 575.6 972.9C671.749 956.563 760.631 911.297 830.39 843.14C900.148 774.984 947.467 687.177 966.033 591.434Z" fill="black"/>
<path d="M957.9 502.167C957.9 562.693 945.939 622.626 922.7 678.545C899.46 734.464 865.398 785.274 822.457 828.072C779.516 870.871 728.537 904.82 672.432 927.983C616.327 951.145 556.194 963.067 495.467 963.067C434.739 963.067 374.606 951.145 318.501 927.983C262.396 904.82 211.418 870.871 168.477 828.072C125.536 785.274 91.4735 734.464 68.2341 678.545C44.9946 622.626 33.0334 562.693 33.0334 502.167C33.0334 441.64 44.9946 381.707 68.2341 325.788C91.4735 269.869 125.536 219.06 168.477 176.261C211.418 133.463 262.396 99.5129 318.501 76.3505C374.606 53.1881 434.739 41.2666 495.467 41.2666C556.194 41.2666 616.327 53.1881 672.432 76.3505C728.537 99.5129 779.516 133.463 822.457 176.261C865.398 219.06 899.46 269.869 922.7 325.788C945.939 381.707 957.9 441.64 957.9 502.167Z" fill="url(#paint2_linear_973_17172)"/>
<path fill-rule="evenodd" clip-rule="evenodd" d="M365.433 486.167C346.746 473.867 331.152 457.417 319.867 438.1C308.972 417.691 303.594 394.792 304.267 371.667C303.441 342.319 313.456 313.697 332.4 291.267C352.087 268.742 377.39 251.836 405.733 242.267C436.56 231.376 469.04 225.907 501.733 226.1C523.123 225.898 544.491 227.537 565.6 231C580.709 233.333 595.549 237.163 609.9 242.433C623.078 246.894 634.975 254.49 644.567 264.567C651.634 272.858 655.438 283.44 655.267 294.333C655.518 299.993 654.653 305.646 652.72 310.971C650.787 316.295 647.824 321.187 644 325.367C640.382 329.218 635.99 332.261 631.112 334.294C626.235 336.328 620.982 337.307 615.7 337.167C608.432 337.107 601.26 335.493 594.667 332.433C578.415 325.16 561.674 319.034 544.567 314.1C528.819 309.948 512.585 307.93 496.3 308.1C475.075 307.319 454.076 312.69 435.833 323.567C428.135 328.245 421.834 334.904 417.588 342.849C413.343 350.794 411.31 359.734 411.7 368.733C411.588 380.549 416.083 391.944 424.233 400.5C433.917 410.551 445.362 418.742 458 424.667C472.155 431.689 493.267 441 521.333 452.6C524.441 453.584 527.472 454.799 530.4 456.233C557.789 467.068 584.049 480.566 608.8 496.533C628.348 509.279 644.831 526.195 657.067 546.067C669.114 566.952 675.148 590.764 674.5 614.867C675.511 644.378 667.054 673.439 650.367 697.8C633.373 720.865 609.864 738.314 582.867 747.9C550.329 759.526 515.945 765.128 481.4 764.433C433.928 766.095 386.683 757.156 343.1 738.267C331.958 733.305 322.189 725.709 314.633 716.133C308.36 707.359 305.108 696.783 305.367 686C305.055 680.313 305.982 674.625 308.082 669.331C310.183 664.036 313.407 659.261 317.533 655.333C326.183 647.759 337.412 643.797 348.9 644.267C361.7 644.441 374.272 647.676 385.567 653.7C399.611 660.722 410.689 665.989 418.8 669.5C428.063 673.378 437.658 676.413 447.467 678.567C459.562 681.22 471.918 682.495 484.3 682.367C506.197 683.93 527.987 678.122 546.2 665.867C553.018 660.532 558.467 653.649 562.096 645.789C565.725 637.928 567.428 629.317 567.067 620.667C567.087 608.401 562.412 596.593 554 587.667C542.884 576.191 529.87 566.718 515.533 559.667C498.578 550.733 474.733 539.845 444 527C416.513 516.047 390.193 502.367 365.433 486.167Z" fill="white"/>
<defs>
<linearGradient id="paint0_linear_973_17172" x1="246.433" y1="3.53333" x2="337.5" y2="578.467" gradientUnits="userSpaceOnUse">
<stop offset="0.012" stop-color="#00B7F0"/>
<stop offset="0.339" stop-color="#009DE5"/>
<stop offset="0.755" stop-color="#0082D9"/>
<stop offset="1" stop-color="#0078D4"/>
</linearGradient>
<linearGradient id="paint1_linear_973_17172" x1="445.967" y1="854.833" x2="951.533" y2="562.966" gradientUnits="userSpaceOnUse">
<stop stop-color="#0078D4"/>
<stop offset="0.37" stop-color="#007AD5"/>
<stop offset="0.573" stop-color="#0082D9"/>
<stop offset="0.735" stop-color="#0090DF"/>
<stop offset="0.875" stop-color="#00A3E7"/>
<stop offset="1" stop-color="#00BCF2"/>
</linearGradient>
<linearGradient id="paint2_linear_973_17172" x1="315" y1="189.633" x2="776.367" y2="988.733" gradientUnits="userSpaceOnUse">
<stop stop-color="#00B7F0"/>
<stop offset="1" stop-color="#007CC1"/>
</linearGradient>
</defs>
</svg>
