<svg width="701" height="437" viewBox="0 0 701 437" fill="none" xmlns="http://www.w3.org/2000/svg">
<g clip-path="url(#clip0_20_4907)">
<g clip-path="url(#clip1_20_4907)">
<g clip-path="url(#clip2_20_4907)">
<path d="M98.5895 436.403L145.206 355.659H555.945L602.562 436.403H98.5895ZM350.576 -0.0499878L397.193 80.6938H303.959L350.576 -0.0499878Z" fill="white"/>
<g clip-path="url(#clip3_20_4907)">
<g clip-path="url(#clip4_20_4907)">
<g clip-path="url(#clip5_20_4907)">
<g clip-path="url(#clip6_20_4907)">
<g clip-path="url(#clip7_20_4907)">
<g clip-path="url(#clip8_20_4907)">
<path d="M129.856 186.323H138.839C137.252 188.063 135.461 189.993 133.464 192.112C131.468 194.242 129.385 196.417 127.215 198.639C125.034 200.87 122.869 203.061 120.719 205.211C118.569 207.361 116.547 209.357 114.653 211.2C116.854 212.736 119.183 214.629 121.64 216.882C124.097 219.134 126.503 221.54 128.858 224.099C131.212 226.658 133.429 229.269 135.507 231.931C137.575 234.592 139.3 237.126 140.682 239.532H131.929C130.393 237.126 128.627 234.705 126.631 232.268C124.635 229.842 122.526 227.513 120.304 225.281C118.073 223.06 115.82 221.002 113.548 219.108C111.265 217.214 109.048 215.602 106.898 214.271V239.532H99.4508V186.323H106.898V209.818C108.69 208.129 110.661 206.219 112.811 204.09C114.96 201.971 117.085 199.836 119.183 197.687C121.282 195.537 123.268 193.474 125.141 191.498C127.005 189.533 128.576 187.808 129.856 186.323ZM160.798 234.388C162.487 234.388 163.982 234.347 165.282 234.265C166.593 234.193 167.683 234.055 168.553 233.85V221.949C168.041 221.693 167.207 221.473 166.05 221.289C164.903 221.115 163.511 221.028 161.873 221.028C160.798 221.028 159.657 221.105 158.449 221.258C157.251 221.412 156.15 221.729 155.147 222.21C154.154 222.702 153.325 223.367 152.659 224.206C151.994 225.056 151.661 226.172 151.661 227.554C151.661 230.113 152.48 231.89 154.118 232.883C155.756 233.886 157.983 234.388 160.798 234.388ZM160.184 198.608C163.05 198.608 165.466 198.977 167.432 199.714C169.408 200.461 170.995 201.51 172.192 202.862C173.4 204.223 174.26 205.836 174.772 207.699C175.284 209.572 175.54 211.635 175.54 213.887V238.841C174.926 238.943 174.066 239.081 172.96 239.255C171.865 239.44 170.626 239.609 169.244 239.762C167.862 239.916 166.362 240.059 164.745 240.192C163.137 240.315 161.54 240.376 159.954 240.376C157.701 240.376 155.628 240.146 153.734 239.685C151.84 239.225 150.203 238.493 148.82 237.489C147.438 236.496 146.364 235.181 145.596 233.543C144.828 231.905 144.444 229.934 144.444 227.631C144.444 225.43 144.889 223.536 145.78 221.949C146.681 220.362 147.899 219.083 149.435 218.11C150.97 217.138 152.762 216.421 154.809 215.96C156.857 215.5 159.007 215.269 161.259 215.269C161.975 215.269 162.718 215.305 163.485 215.377C164.253 215.459 164.98 215.561 165.666 215.684C166.362 215.817 166.966 215.935 167.478 216.037C167.99 216.139 168.348 216.216 168.553 216.267V214.271C168.553 213.094 168.425 211.927 168.169 210.77C167.913 209.623 167.452 208.6 166.787 207.699C166.122 206.808 165.21 206.091 164.054 205.549C162.907 205.017 161.412 204.75 159.57 204.75C157.215 204.75 155.152 204.914 153.381 205.242C151.62 205.58 150.305 205.928 149.435 206.286L148.59 200.374C149.511 199.964 151.047 199.565 153.197 199.176C155.347 198.797 157.676 198.608 160.184 198.608ZM187.364 239.532V200.758C189.002 200.348 191.162 199.913 193.844 199.453C196.537 198.992 199.644 198.762 203.165 198.762C205.725 198.762 207.88 199.104 209.63 199.79C211.371 200.487 212.83 201.5 214.007 202.831C214.365 202.575 214.928 202.217 215.696 201.756C216.464 201.295 217.406 200.845 218.522 200.405C219.658 199.975 220.917 199.591 222.299 199.253C223.681 198.925 225.166 198.762 226.752 198.762C229.813 198.762 232.316 199.207 234.261 200.098C236.217 200.998 237.742 202.268 238.838 203.906C239.943 205.544 240.685 207.489 241.064 209.741C241.453 211.993 241.648 214.45 241.648 217.112V239.532H234.507V218.648C234.507 216.293 234.389 214.271 234.154 212.582C233.929 210.893 233.494 209.485 232.849 208.359C232.214 207.233 231.344 206.399 230.238 205.856C229.143 205.324 227.725 205.058 225.985 205.058C223.569 205.058 221.583 205.375 220.026 206.01C218.47 206.655 217.411 207.233 216.848 207.745C217.257 209.076 217.559 210.534 217.754 212.121C217.969 213.708 218.076 215.372 218.076 217.112V239.532H210.936V218.648C210.936 216.293 210.808 214.271 210.552 212.582C210.296 210.893 209.845 209.485 209.2 208.359C208.566 207.233 207.696 206.399 206.59 205.856C205.494 205.324 204.097 205.058 202.398 205.058C201.691 205.058 200.924 205.083 200.094 205.134C199.286 205.185 198.507 205.247 197.76 205.319C197.013 205.4 196.337 205.493 195.733 205.595C195.109 205.697 194.699 205.774 194.505 205.825V239.532H187.364ZM260.597 179.95V201.372C261.467 200.809 262.788 200.22 264.559 199.606C266.32 198.992 268.352 198.685 270.655 198.685C273.522 198.685 276.071 199.197 278.303 200.22C280.524 201.244 282.403 202.677 283.938 204.52C285.474 206.363 286.641 208.564 287.439 211.123C288.228 213.682 288.622 216.498 288.622 219.569C288.622 222.794 288.151 225.696 287.209 228.276C286.257 230.866 284.911 233.057 283.17 234.848C281.43 236.64 279.331 238.022 276.874 238.994C274.418 239.967 271.653 240.453 268.582 240.453C265.255 240.453 262.312 240.223 259.753 239.762C257.193 239.301 255.094 238.841 253.457 238.38V181.179L260.597 179.95ZM260.597 208.052V233.313C261.314 233.517 262.327 233.707 263.638 233.881C264.938 234.065 266.56 234.157 268.505 234.157C272.344 234.157 275.416 232.888 277.719 230.349C280.022 227.82 281.174 224.227 281.174 219.569C281.174 217.521 280.969 215.602 280.56 213.81C280.15 212.019 279.485 210.468 278.564 209.158C277.642 207.857 276.455 206.834 275.001 206.086C273.537 205.349 271.781 204.981 269.734 204.981C267.789 204.981 265.997 205.313 264.359 205.979C262.721 206.644 261.467 207.335 260.597 208.052ZM305.821 199.606V239.532H298.68V199.606H305.821ZM302.212 192.389C300.932 192.389 299.847 191.964 298.956 191.114C298.056 190.275 297.605 189.138 297.605 187.705C297.605 186.272 298.056 185.13 298.956 184.281C299.847 183.441 300.932 183.022 302.212 183.022C303.492 183.022 304.582 183.441 305.483 184.281C306.373 185.13 306.819 186.272 306.819 187.705C306.819 189.138 306.373 190.275 305.483 191.114C304.582 191.964 303.492 192.389 302.212 192.389ZM344.595 199.606V204.981C343.52 206.158 342.097 207.822 340.326 209.971C338.565 212.121 336.671 214.501 334.644 217.112C332.627 219.723 330.605 222.461 328.578 225.327C326.562 228.194 324.785 230.932 323.25 233.543H345.209V239.532H314.727V234.771C315.956 232.519 317.466 230.037 319.257 227.324C321.049 224.611 322.927 221.908 324.893 219.216C326.869 216.534 328.788 214 330.651 211.615C332.525 209.239 334.153 207.233 335.535 205.595H315.802V199.606H344.595ZM386.808 239.993C385.733 239.993 384.572 239.967 383.323 239.916C382.063 239.865 380.809 239.788 379.56 239.685C378.301 239.583 377.057 239.455 375.829 239.301C374.6 239.148 373.474 238.943 372.45 238.687V187.091C373.474 186.835 374.6 186.63 375.829 186.477C377.057 186.323 378.301 186.195 379.56 186.093C380.809 185.99 382.048 185.914 383.276 185.862C384.505 185.811 385.657 185.786 386.732 185.786C389.803 185.786 392.685 186.016 395.377 186.477C398.059 186.937 400.388 187.721 402.364 188.826C404.33 189.922 405.875 191.365 407.002 193.157C408.128 194.948 408.691 197.149 408.691 199.76C408.691 202.677 408 205.068 406.618 206.931C405.236 208.804 403.393 210.202 401.089 211.123C404.212 212.045 406.694 213.503 408.537 215.5C410.38 217.496 411.301 220.311 411.301 223.945C411.301 229.269 409.346 233.272 405.435 235.954C401.514 238.646 395.305 239.993 386.808 239.993ZM389.419 214.732H379.821V233.466C380.384 233.517 381.05 233.569 381.818 233.62C382.483 233.671 383.266 233.707 384.167 233.727C385.058 233.758 386.092 233.773 387.269 233.773C389.47 233.773 391.559 233.63 393.534 233.343C395.5 233.067 397.225 232.57 398.709 231.854C400.194 231.137 401.386 230.139 402.287 228.859C403.178 227.58 403.623 225.967 403.623 224.022C403.623 222.282 403.291 220.808 402.625 219.6C401.96 218.402 401.002 217.445 399.754 216.728C398.494 216.011 396.995 215.5 395.254 215.192C393.514 214.885 391.569 214.732 389.419 214.732ZM379.821 192.312V208.743H387.653C389.496 208.743 391.236 208.615 392.874 208.359C394.512 208.103 395.935 207.642 397.143 206.977C398.341 206.312 399.288 205.441 399.984 204.366C400.67 203.292 401.013 201.935 401.013 200.297C401.013 198.762 400.654 197.467 399.938 196.412C399.221 195.368 398.238 194.523 396.989 193.878C395.73 193.244 394.256 192.773 392.567 192.466C390.878 192.158 389.086 192.005 387.192 192.005C385.298 192.005 383.814 192.03 382.739 192.082C381.664 192.133 380.692 192.21 379.821 192.312ZM434.873 234.388C436.562 234.388 438.062 234.347 439.372 234.265C440.672 234.193 441.757 234.055 442.628 233.85V221.949C442.116 221.693 441.286 221.473 440.14 221.289C438.983 221.115 437.586 221.028 435.948 221.028C434.873 221.028 433.736 221.105 432.539 221.258C431.331 221.412 430.23 221.729 429.237 222.21C428.234 222.702 427.399 223.367 426.734 224.206C426.069 225.056 425.736 226.172 425.736 227.554C425.736 230.113 426.555 231.89 428.193 232.883C429.831 233.886 432.058 234.388 434.873 234.388ZM434.259 198.608C437.125 198.608 439.546 198.977 441.522 199.714C443.488 200.461 445.074 201.51 446.282 202.862C447.48 204.223 448.335 205.836 448.847 207.699C449.359 209.572 449.615 211.635 449.615 213.887V238.841C449 238.943 448.146 239.081 447.05 239.255C445.944 239.44 444.701 239.609 443.319 239.762C441.937 239.916 440.442 240.059 438.835 240.192C437.217 240.315 435.615 240.376 434.028 240.376C431.776 240.376 429.703 240.146 427.809 239.685C425.915 239.225 424.277 238.493 422.895 237.489C421.513 236.496 420.438 235.181 419.67 233.543C418.903 231.905 418.519 229.934 418.519 227.631C418.519 225.43 418.969 223.536 419.87 221.949C420.761 220.362 421.974 219.083 423.509 218.11C425.045 217.138 426.836 216.421 428.884 215.96C430.931 215.5 433.081 215.269 435.333 215.269C436.05 215.269 436.792 215.305 437.56 215.377C438.328 215.459 439.06 215.561 439.756 215.684C440.442 215.817 441.041 215.935 441.553 216.037C442.065 216.139 442.423 216.216 442.628 216.267V214.271C442.628 213.094 442.5 211.927 442.244 210.77C441.988 209.623 441.527 208.6 440.862 207.699C440.196 206.808 439.29 206.091 438.144 205.549C436.987 205.017 435.487 204.75 433.644 204.75C431.29 204.75 429.232 204.914 427.471 205.242C425.7 205.58 424.379 205.928 423.509 206.286L422.665 200.374C423.586 199.964 425.122 199.565 427.272 199.176C429.421 198.797 431.75 198.608 434.259 198.608ZM486.469 237.228V235.539C485.855 235.949 484.662 236.471 482.891 237.106C481.13 237.751 479.073 238.073 476.718 238.073C474.312 238.073 472.045 237.689 469.915 236.921C467.796 236.153 465.943 234.961 464.356 233.343C462.77 231.736 461.516 229.73 460.594 227.324C459.673 224.918 459.212 222.052 459.212 218.724C459.212 215.807 459.647 213.13 460.517 210.693C461.388 208.267 462.652 206.168 464.31 204.397C465.979 202.636 468.016 201.254 470.422 200.251C472.828 199.258 475.541 198.762 478.561 198.762C481.888 198.762 484.79 199.002 487.268 199.483C489.755 199.975 491.844 200.425 493.533 200.835V236.461C493.533 242.603 491.946 247.056 488.772 249.82C485.599 252.584 480.787 253.966 474.338 253.966C471.83 253.966 469.46 253.762 467.228 253.352C465.006 252.943 463.077 252.456 461.439 251.893L462.744 245.674C464.177 246.237 465.928 246.739 467.996 247.179C470.074 247.609 472.239 247.824 474.491 247.824C478.74 247.824 481.796 246.98 483.659 245.29C485.532 243.601 486.469 240.914 486.469 237.228ZM486.392 229.243V205.902C485.676 205.697 484.713 205.503 483.505 205.319C482.308 205.145 480.685 205.058 478.637 205.058C474.798 205.058 471.84 206.312 469.762 208.82C467.694 211.328 466.66 214.655 466.66 218.801C466.66 221.105 466.952 223.075 467.535 224.713C468.129 226.351 468.922 227.708 469.915 228.783C470.919 229.858 472.07 230.651 473.37 231.163C474.681 231.675 476.027 231.931 477.409 231.931C479.303 231.931 481.043 231.659 482.63 231.117C484.217 230.584 485.471 229.96 486.392 229.243ZM512.958 239.532H505.818V181.179L512.958 179.95V200.374C514.289 199.862 515.707 199.463 517.212 199.176C518.727 198.9 520.227 198.762 521.711 198.762C524.885 198.762 527.521 199.207 529.62 200.098C531.718 200.998 533.392 202.252 534.641 203.86C535.9 205.477 536.786 207.412 537.298 209.664C537.809 211.917 538.065 214.399 538.065 217.112V239.532H530.925V218.648C530.925 216.191 530.756 214.092 530.418 212.352C530.091 210.611 529.543 209.204 528.775 208.129C528.007 207.054 526.983 206.271 525.704 205.779C524.424 205.298 522.837 205.058 520.943 205.058C520.176 205.058 519.382 205.109 518.563 205.211C517.744 205.313 516.961 205.426 516.214 205.549C515.477 205.682 514.811 205.825 514.217 205.979C513.634 206.132 513.214 206.26 512.958 206.363V239.532ZM556.784 199.606V239.532H549.644V199.606H556.784ZM553.176 192.389C551.896 192.389 550.811 191.964 549.92 191.114C549.019 190.275 548.569 189.138 548.569 187.705C548.569 186.272 549.019 185.13 549.92 184.281C550.811 183.441 551.896 183.022 553.176 183.022C554.455 183.022 555.546 183.441 556.447 184.281C557.337 185.13 557.783 186.272 557.783 187.705C557.783 189.138 557.337 190.275 556.447 191.114C555.546 191.964 554.455 192.389 553.176 192.389ZM566.843 219.646C566.843 216.114 567.355 213.027 568.378 210.386C569.402 207.755 570.758 205.569 572.448 203.829C574.137 202.089 576.082 200.783 578.283 199.913C580.484 199.043 582.736 198.608 585.04 198.608C590.414 198.608 594.535 200.282 597.401 203.629C600.268 206.987 601.701 212.096 601.701 218.955C601.701 219.262 601.701 219.656 601.701 220.137C601.701 220.629 601.675 221.079 601.624 221.488H574.29C574.597 225.635 575.8 228.783 577.899 230.932C579.998 233.082 583.274 234.157 587.727 234.157C590.235 234.157 592.349 233.937 594.069 233.497C595.779 233.067 597.068 232.647 597.939 232.238L598.937 238.227C598.067 238.687 596.546 239.174 594.376 239.685C592.195 240.197 589.723 240.453 586.959 240.453C583.478 240.453 580.474 239.926 577.945 238.872C575.406 237.827 573.318 236.384 571.68 234.541C570.042 232.698 568.829 230.508 568.04 227.969C567.242 225.44 566.843 222.666 566.843 219.646ZM574.444 215.73H594.253C594.304 212.505 593.501 209.854 591.842 207.776C590.174 205.708 587.88 204.674 584.963 204.674C583.325 204.674 581.881 204.991 580.632 205.626C579.373 206.271 578.308 207.105 577.438 208.129C576.568 209.152 575.892 210.33 575.411 211.661C574.92 212.991 574.597 214.348 574.444 215.73Z" fill="white"/>
</g>
</g>
<g clip-path="url(#clip9_20_4907)">
<g clip-path="url(#clip10_20_4907)">
<path d="M154.198 307.615H149.676V275.309H169.162V279.178H154.198V288.921H167.484V292.744H154.198V307.615ZM182.075 282.861C182.448 282.861 182.873 282.883 183.352 282.926C183.837 282.976 184.312 283.038 184.778 283.113C185.245 283.194 185.67 283.271 186.056 283.346C186.447 283.427 186.736 283.498 186.923 283.56L186.177 287.336C185.835 287.212 185.266 287.063 184.471 286.889C183.681 286.721 182.665 286.637 181.422 286.637C180.614 286.637 179.812 286.721 179.017 286.889C178.227 287.063 177.708 287.181 177.46 287.243V307.615H173.124V284.399C174.15 284.026 175.424 283.675 176.947 283.346C178.47 283.023 180.179 282.861 182.075 282.861ZM212.515 295.494C212.515 297.421 212.236 299.161 211.676 300.715C211.117 302.269 210.331 303.606 209.318 304.724C208.311 305.843 207.108 306.704 205.709 307.307C204.311 307.916 202.788 308.221 201.141 308.221C199.494 308.221 197.971 307.916 196.573 307.307C195.174 306.704 193.968 305.843 192.955 304.724C191.948 303.606 191.165 302.269 190.606 300.715C190.046 299.161 189.766 297.421 189.766 295.494C189.766 293.598 190.046 291.867 190.606 290.301C191.165 288.729 191.948 287.383 192.955 286.264C193.968 285.145 195.174 284.281 196.573 283.672C197.971 283.069 199.494 282.768 201.141 282.768C202.788 282.768 204.311 283.069 205.709 283.672C207.108 284.281 208.311 285.145 209.318 286.264C210.331 287.383 211.117 288.729 211.676 290.301C212.236 291.867 212.515 293.598 212.515 295.494ZM207.984 295.494C207.984 292.759 207.372 290.59 206.148 288.986C204.923 287.389 203.254 286.59 201.141 286.59C199.028 286.59 197.356 287.389 196.125 288.986C194.901 290.59 194.288 292.759 194.288 295.494C194.288 298.229 194.901 300.395 196.125 301.993C197.356 303.596 199.028 304.398 201.141 304.398C203.254 304.398 204.923 303.596 206.148 301.993C207.372 300.395 207.984 298.229 207.984 295.494ZM218.613 307.615V284.073C219.607 283.824 220.928 283.56 222.575 283.281C224.223 283.001 226.118 282.861 228.263 282.861C230.189 282.861 231.79 283.131 233.064 283.672C234.338 284.219 235.358 284.981 236.122 285.956C236.881 286.938 237.415 288.113 237.726 289.481C238.037 290.848 238.192 292.355 238.192 294.002V307.615H233.857V294.935C233.857 293.443 233.757 292.169 233.558 291.112C233.353 290.056 233.018 289.201 232.551 288.548C232.085 287.896 231.464 287.42 230.687 287.122C229.91 286.83 228.946 286.684 227.796 286.684C227.33 286.684 226.849 286.699 226.351 286.73C225.854 286.761 225.382 286.799 224.934 286.842C224.48 286.892 224.076 286.948 223.722 287.01C223.362 287.072 223.104 287.119 222.948 287.15V307.615H218.613ZM249.427 275.869V283.374H258.61V287.01H249.427V298.198C249.427 299.41 249.52 300.411 249.706 301.2C249.893 301.996 250.173 302.617 250.545 303.065C250.918 303.519 251.385 303.839 251.944 304.025C252.503 304.212 253.156 304.305 253.902 304.305C255.207 304.305 256.258 304.156 257.053 303.857C257.843 303.565 258.393 303.357 258.703 303.233L259.543 306.822C259.107 307.04 258.346 307.313 257.258 307.643C256.171 307.966 254.927 308.127 253.529 308.127C251.882 308.127 250.524 307.916 249.455 307.493C248.379 307.077 247.515 306.449 246.863 305.61C246.21 304.771 245.753 303.736 245.492 302.505C245.225 301.281 245.091 299.861 245.091 298.245V276.614L249.427 275.869ZM259.776 295.681V291.625H271.29V295.681H259.776ZM274.879 295.541C274.879 293.396 275.19 291.522 275.812 289.919C276.433 288.321 277.257 286.994 278.282 285.938C279.308 284.881 280.489 284.089 281.825 283.56C283.162 283.032 284.529 282.768 285.928 282.768C289.191 282.768 291.693 283.784 293.433 285.817C295.173 287.855 296.043 290.957 296.043 295.121C296.043 295.308 296.043 295.547 296.043 295.839C296.043 296.138 296.028 296.411 295.997 296.66H279.401C279.588 299.177 280.318 301.088 281.592 302.393C282.866 303.699 284.855 304.351 287.559 304.351C289.082 304.351 290.362 304.218 291.4 303.95C292.445 303.689 293.231 303.435 293.759 303.186L294.365 306.822C293.837 307.102 292.911 307.397 291.587 307.708C290.269 308.019 288.771 308.174 287.093 308.174C284.98 308.174 283.152 307.854 281.611 307.214C280.076 306.58 278.811 305.703 277.816 304.584C276.822 303.466 276.082 302.136 275.597 300.594C275.119 299.059 274.879 297.374 274.879 295.541ZM279.495 293.163H291.522C291.553 291.205 291.062 289.596 290.049 288.334C289.042 287.078 287.652 286.451 285.881 286.451C284.887 286.451 284.007 286.643 283.243 287.029C282.484 287.42 281.841 287.927 281.313 288.548C280.784 289.17 280.371 289.885 280.073 290.693C279.78 291.501 279.588 292.324 279.495 293.163ZM302.281 307.615V284.073C303.275 283.824 304.596 283.56 306.243 283.281C307.89 283.001 309.786 282.861 311.931 282.861C313.857 282.861 315.458 283.131 316.732 283.672C318.006 284.219 319.026 284.981 319.79 285.956C320.548 286.938 321.083 288.113 321.394 289.481C321.704 290.848 321.86 292.355 321.86 294.002V307.615H317.525V294.935C317.525 293.443 317.425 292.169 317.226 291.112C317.021 290.056 316.685 289.201 316.219 288.548C315.753 287.896 315.132 287.42 314.355 287.122C313.578 286.83 312.614 286.684 311.464 286.684C310.998 286.684 310.516 286.699 310.019 286.73C309.522 286.761 309.05 286.799 308.602 286.842C308.148 286.892 307.744 286.948 307.39 287.01C307.03 287.072 306.772 287.119 306.616 287.15V307.615H302.281ZM344.702 303.839V288.502C344.174 288.067 343.412 287.647 342.418 287.243C341.423 286.839 340.336 286.637 339.155 286.637C337.912 286.637 336.849 286.861 335.966 287.308C335.077 287.762 334.353 288.384 333.794 289.173C333.234 289.969 332.83 290.91 332.582 291.998C332.333 293.086 332.209 294.251 332.209 295.494C332.209 298.322 332.908 300.504 334.307 302.039C335.705 303.581 337.57 304.351 339.901 304.351C341.082 304.351 342.067 304.295 342.856 304.184C343.652 304.078 344.267 303.963 344.702 303.839ZM344.702 284.446V272.186L349.037 271.44V306.915C348.043 307.195 346.769 307.475 345.215 307.754C343.661 308.034 341.874 308.174 339.854 308.174C337.989 308.174 336.311 307.879 334.819 307.288C333.328 306.698 332.053 305.859 330.997 304.771C329.94 303.683 329.126 302.353 328.554 300.781C327.976 299.214 327.687 297.452 327.687 295.494C327.687 293.63 327.926 291.92 328.405 290.366C328.89 288.812 329.598 287.476 330.531 286.357C331.463 285.239 332.607 284.368 333.962 283.747C335.31 283.125 336.855 282.814 338.595 282.814C339.994 282.814 341.231 283.001 342.306 283.374C343.375 283.747 344.174 284.104 344.702 284.446ZM365.913 295.541C365.913 293.396 366.224 291.522 366.845 289.919C367.467 288.321 368.29 286.994 369.316 285.938C370.341 284.881 371.522 284.089 372.859 283.56C374.195 283.032 375.562 282.768 376.961 282.768C380.224 282.768 382.726 283.784 384.466 285.817C386.207 287.855 387.077 290.957 387.077 295.121C387.077 295.308 387.077 295.547 387.077 295.839C387.077 296.138 387.061 296.411 387.03 296.66H370.435C370.621 299.177 371.351 301.088 372.626 302.393C373.9 303.699 375.889 304.351 378.593 304.351C380.115 304.351 381.396 304.218 382.434 303.95C383.478 303.689 384.264 303.435 384.793 303.186L385.399 306.822C384.87 307.102 383.944 307.397 382.62 307.708C381.303 308.019 379.805 308.174 378.126 308.174C376.013 308.174 374.186 307.854 372.644 307.214C371.109 306.58 369.844 305.703 368.85 304.584C367.855 303.466 367.115 302.136 366.631 300.594C366.152 299.059 365.913 297.374 365.913 295.541ZM370.528 293.163H382.555C382.586 291.205 382.095 289.596 381.082 288.334C380.075 287.078 378.686 286.451 376.914 286.451C375.92 286.451 375.04 286.643 374.276 287.029C373.518 287.42 372.874 287.927 372.346 288.548C371.818 289.17 371.404 289.885 371.106 290.693C370.814 291.501 370.621 292.324 370.528 293.163ZM393.314 307.615V284.073C394.309 283.824 395.629 283.56 397.277 283.281C398.924 283.001 400.819 282.861 402.964 282.861C404.891 282.861 406.491 283.131 407.765 283.672C409.04 284.219 410.059 284.981 410.823 285.956C411.582 286.938 412.116 288.113 412.427 289.481C412.738 290.848 412.893 292.355 412.893 294.002V307.615H408.558V294.935C408.558 293.443 408.458 292.169 408.259 291.112C408.054 290.056 407.719 289.201 407.253 288.548C406.786 287.896 406.165 287.42 405.388 287.122C404.611 286.83 403.648 286.684 402.498 286.684C402.031 286.684 401.55 286.699 401.053 286.73C400.555 286.761 400.083 286.799 399.635 286.842C399.182 286.892 398.778 286.948 398.423 287.01C398.063 287.072 397.805 287.119 397.65 287.15V307.615H393.314ZM435.269 306.216V305.191C434.896 305.439 434.175 305.756 433.106 306.141C432.031 306.533 430.779 306.729 429.349 306.729C427.888 306.729 426.512 306.496 425.219 306.03C423.932 305.563 422.807 304.839 421.844 303.857C420.88 302.881 420.119 301.663 419.559 300.203C419 298.742 418.72 297.001 418.72 294.981C418.72 293.21 418.984 291.585 419.513 290.105C420.041 288.632 420.809 287.358 421.816 286.283C422.829 285.214 424.066 284.375 425.526 283.765C426.987 283.163 428.634 282.861 430.468 282.861C432.488 282.861 434.25 283.007 435.754 283.299C437.264 283.598 438.532 283.871 439.558 284.12V305.75C439.558 309.479 438.595 312.183 436.668 313.861C434.741 315.539 431.82 316.379 427.904 316.379C426.381 316.379 424.942 316.254 423.587 316.006C422.238 315.757 421.067 315.462 420.072 315.12L420.865 311.344C421.735 311.686 422.798 311.99 424.053 312.258C425.315 312.519 426.63 312.649 427.997 312.649C430.577 312.649 432.435 312.136 433.572 311.111C434.704 310.085 435.269 308.454 435.269 306.216ZM435.223 301.368V287.196C434.788 287.072 434.203 286.954 433.47 286.842C432.743 286.736 431.757 286.684 430.514 286.684C428.184 286.684 426.39 287.445 425.135 288.968C423.873 290.491 423.242 292.511 423.242 295.028C423.242 296.427 423.422 297.623 423.783 298.618C424.137 299.612 424.616 300.436 425.219 301.088C425.828 301.741 426.527 302.223 427.316 302.533C428.112 302.844 428.929 303 429.769 303C430.918 303 431.975 302.835 432.938 302.505C433.902 302.182 434.663 301.803 435.223 301.368ZM451.352 283.374V307.615H447.017V283.374H451.352ZM449.161 278.992C448.384 278.992 447.722 278.734 447.175 278.218C446.634 277.708 446.364 277.018 446.364 276.148C446.364 275.278 446.634 274.585 447.175 274.069C447.722 273.559 448.384 273.305 449.161 273.305C449.938 273.305 450.597 273.559 451.138 274.069C451.685 274.585 451.958 275.278 451.958 276.148C451.958 277.018 451.685 277.708 451.138 278.218C450.597 278.734 449.938 278.992 449.161 278.992ZM458.801 307.615V284.073C459.796 283.824 461.117 283.56 462.764 283.281C464.411 283.001 466.307 282.861 468.451 282.861C470.378 282.861 471.978 283.131 473.253 283.672C474.527 284.219 475.546 284.981 476.311 285.956C477.069 286.938 477.604 288.113 477.914 289.481C478.225 290.848 478.38 292.355 478.38 294.002V307.615H474.045V294.935C474.045 293.443 473.946 292.169 473.747 291.112C473.542 290.056 473.206 289.201 472.74 288.548C472.274 287.896 471.652 287.42 470.875 287.122C470.098 286.83 469.135 286.684 467.985 286.684C467.519 286.684 467.037 286.699 466.54 286.73C466.043 286.761 465.57 286.799 465.123 286.842C464.669 286.892 464.265 286.948 463.911 287.01C463.55 287.072 463.292 287.119 463.137 287.15V307.615H458.801ZM484.208 295.541C484.208 293.396 484.518 291.522 485.14 289.919C485.761 288.321 486.585 286.994 487.611 285.938C488.636 284.881 489.817 284.089 491.154 283.56C492.49 283.032 493.857 282.768 495.256 282.768C498.519 282.768 501.021 283.784 502.761 285.817C504.501 287.855 505.372 290.957 505.372 295.121C505.372 295.308 505.372 295.547 505.372 295.839C505.372 296.138 505.356 296.411 505.325 296.66H488.729C488.916 299.177 489.646 301.088 490.92 302.393C492.195 303.699 494.184 304.351 496.887 304.351C498.41 304.351 499.694 304.218 500.738 303.95C501.776 303.689 502.559 303.435 503.087 303.186L503.693 306.822C503.165 307.102 502.242 307.397 500.924 307.708C499.6 308.019 498.099 308.174 496.421 308.174C494.308 308.174 492.484 307.854 490.948 307.214C489.407 306.58 488.139 305.703 487.144 304.584C486.15 303.466 485.413 302.136 484.935 300.594C484.45 299.059 484.208 297.374 484.208 295.541ZM488.823 293.163H500.85C500.881 291.205 500.393 289.596 499.386 288.334C498.373 287.078 496.981 286.451 495.209 286.451C494.215 286.451 493.338 286.643 492.58 287.029C491.815 287.42 491.169 287.927 490.641 288.548C490.112 289.17 489.702 289.885 489.41 290.693C489.112 291.501 488.916 292.324 488.823 293.163ZM510.266 295.541C510.266 293.396 510.577 291.522 511.199 289.919C511.82 288.321 512.644 286.994 513.669 285.938C514.695 284.881 515.876 284.089 517.212 283.56C518.549 283.032 519.916 282.768 521.315 282.768C524.578 282.768 527.08 283.784 528.82 285.817C530.56 287.855 531.43 290.957 531.43 295.121C531.43 295.308 531.43 295.547 531.43 295.839C531.43 296.138 531.415 296.411 531.384 296.66H514.788C514.975 299.177 515.705 301.088 516.979 302.393C518.253 303.699 520.242 304.351 522.946 304.351C524.469 304.351 525.749 304.218 526.787 303.95C527.832 303.689 528.618 303.435 529.146 303.186L529.752 306.822C529.224 307.102 528.298 307.397 526.974 307.708C525.656 308.019 524.158 308.174 522.48 308.174C520.367 308.174 518.539 307.854 516.998 307.214C515.463 306.58 514.198 305.703 513.203 304.584C512.209 303.466 511.469 302.136 510.984 300.594C510.506 299.059 510.266 297.374 510.266 295.541ZM514.881 293.163H526.909C526.94 291.205 526.449 289.596 525.436 288.334C524.429 287.078 523.039 286.451 521.268 286.451C520.273 286.451 519.394 286.643 518.629 287.029C517.871 287.42 517.228 287.927 516.7 288.548C516.171 289.17 515.758 289.885 515.46 290.693C515.167 291.501 514.975 292.324 514.881 293.163ZM546.628 282.861C547 282.861 547.426 282.883 547.905 282.926C548.39 282.976 548.865 283.038 549.331 283.113C549.797 283.194 550.223 283.271 550.609 283.346C551 283.427 551.289 283.498 551.476 283.56L550.73 287.336C550.388 287.212 549.819 287.063 549.024 286.889C548.234 286.721 547.218 286.637 545.975 286.637C545.167 286.637 544.365 286.721 543.569 286.889C542.78 287.063 542.261 287.181 542.012 287.243V307.615H537.677V284.399C538.703 284.026 539.977 283.675 541.5 283.346C543.022 283.023 544.732 282.861 546.628 282.861Z" fill="white"/>
</g>
</g>
</g>
</g>
<g clip-path="url(#clip11_20_4907)">
<g clip-path="url(#clip12_20_4907)">
<path d="M317.495 127.5C305.233 127.5 297.706 132.098 297.706 135.233C297.706 138.369 300.355 141.295 313.871 141.295C327.388 141.295 354.84 124.155 382.85 124.155C411.416 124.158 411.416 138.508 411.416 138.508C411.416 138.508 407.647 135.233 388.702 135.233C360.414 135.233 334.077 150.492 315.336 150.492C296.593 150.492 291.745 142.118 291.745 135.568C291.745 129.924 299.101 119.975 317.216 119.975C335.331 119.975 338.398 130.983 338.398 130.983C338.398 130.983 329.757 127.5 317.495 127.5ZM283.215 137.812C283.215 137.812 279.591 162.477 319.863 162.477C360.136 162.477 375.465 145.476 406.68 145.476C416.135 145.676 417.827 150.144 417.827 150.144C417.827 150.144 421.59 137.812 395.948 137.812C370.31 137.812 340.25 154.395 315.963 154.395C291.675 154.395 283.215 137.812 283.215 137.812Z" fill="white"/>
</g>
</g>
<path d="M531.223 154.532H428.18V161.207H531.223V154.532Z" fill="white"/>
<path d="M272.971 154.532H169.928V161.207H272.971V154.532Z" fill="white"/>
<path d="M531.223 141.182H428.18V147.857H531.223V141.182Z" fill="white"/>
<path d="M272.971 141.182H169.928V147.857H272.971V141.182Z" fill="white"/>
</g>
</g>
</g>
</g>
</g>
<defs>
<clipPath id="clip0_20_4907">
<rect width="700" height="436.1" fill="white" transform="translate(0.575806 0.126556)"/>
</clipPath>
<clipPath id="clip1_20_4907">
<rect width="698.325" height="436.453" fill="white" transform="translate(1.41333 -0.0499878)"/>
</clipPath>
<clipPath id="clip2_20_4907">
<rect width="698.325" height="436.453" fill="white" transform="translate(1.41333 -0.0499878)"/>
</clipPath>
<clipPath id="clip3_20_4907">
<rect width="502.296" height="196.404" fill="white" transform="translate(99.4277 119.975)"/>
</clipPath>
<clipPath id="clip4_20_4907">
<rect width="502.296" height="196.404" fill="white" transform="translate(99.4277 119.975)"/>
</clipPath>
<clipPath id="clip5_20_4907">
<rect width="502.296" height="136.428" fill="white" transform="translate(99.4277 179.95)"/>
</clipPath>
<clipPath id="clip6_20_4907">
<rect width="502.296" height="136.428" fill="white" transform="translate(99.4277 179.95)"/>
</clipPath>
<clipPath id="clip7_20_4907">
<rect width="502.296" height="74.0161" fill="white" transform="translate(99.4277 179.95)"/>
</clipPath>
<clipPath id="clip8_20_4907">
<rect width="502.296" height="74.0161" fill="white" transform="translate(99.4277 179.95)"/>
</clipPath>
<clipPath id="clip9_20_4907">
<rect width="401.837" height="44.9386" fill="white" transform="translate(149.657 271.44)"/>
</clipPath>
<clipPath id="clip10_20_4907">
<rect width="401.837" height="44.9386" fill="white" transform="translate(149.657 271.44)"/>
</clipPath>
<clipPath id="clip11_20_4907">
<rect width="155.21" height="42.5023" fill="white" transform="translate(272.971 119.975)"/>
</clipPath>
<clipPath id="clip12_20_4907">
<rect width="134.89" height="42.5023" fill="white" transform="translate(283.131 119.975)"/>
</clipPath>
</defs>
</svg>
